G04 #@! TF.FileFunction,Legend,Bot*
%FSLAX46Y46*%
G04 Gerber Fmt 4.6, Leading zero omitted, Abs format (unit mm)*
G04 Created by KiCad (PCBNEW 4.0.6) date 07/28/17 14:14:33*
%MOMM*%
%LPD*%
G01*
G04 APERTURE LIST*
%ADD10C,0.100000*%
%ADD11C,0.120000*%
%ADD12C,0.150000*%
G04 APERTURE END LIST*
D10*
D11*
X71970000Y-147850000D02*
X71970000Y-149850000D01*
X69930000Y-149850000D02*
X69930000Y-147850000D01*
X68870000Y-143450000D02*
X68870000Y-145450000D01*
X66830000Y-145450000D02*
X66830000Y-143450000D01*
D12*
X98862137Y-53810000D02*
X101862137Y-52298805D01*
X98862137Y-33510000D02*
X101862137Y-35026805D01*
X101862137Y-35026805D02*
X101862137Y-52298805D01*
X65702137Y-39606605D02*
X65702137Y-33500000D01*
X65702137Y-33500000D02*
X68459137Y-33500000D01*
X65702137Y-53820000D02*
X68382937Y-53820000D01*
X65702137Y-53820000D02*
X65702137Y-47597000D01*
X68693737Y-47606605D02*
X69193737Y-47106605D01*
X69193737Y-47106605D02*
X69193737Y-40106605D01*
X69193737Y-40106605D02*
X68693737Y-39606605D01*
X68693737Y-47606605D02*
X63797137Y-47606605D01*
X63797137Y-47606605D02*
X63797137Y-39606605D01*
X68693737Y-39606605D02*
X63797137Y-39606605D01*
D11*
X65620000Y-147850000D02*
X65620000Y-149850000D01*
X63580000Y-149850000D02*
X63580000Y-147850000D01*
D12*
X93725000Y-136475000D02*
X93725000Y-135325000D01*
X96975000Y-137250000D02*
X96975000Y-135325000D01*
D11*
X94050000Y-145260000D02*
X92250000Y-145260000D01*
X92250000Y-142040000D02*
X94700000Y-142040000D01*
D12*
X76787500Y-132787500D02*
X76787500Y-133387500D01*
X81037500Y-137037500D02*
X81037500Y-136437500D01*
X76787500Y-137037500D02*
X76787500Y-136437500D01*
X81037500Y-132787500D02*
X80437500Y-132787500D01*
X81037500Y-137037500D02*
X80437500Y-137037500D01*
X76787500Y-137037500D02*
X77387500Y-137037500D01*
X76787500Y-132787500D02*
X77387500Y-132787500D01*
X81125000Y-93875000D02*
X80525000Y-93875000D01*
X76875000Y-98125000D02*
X77475000Y-98125000D01*
X76875000Y-93875000D02*
X77475000Y-93875000D01*
X81125000Y-98125000D02*
X81125000Y-97525000D01*
X76875000Y-98125000D02*
X76875000Y-97525000D01*
X76875000Y-93875000D02*
X76875000Y-94475000D01*
X81125000Y-93875000D02*
X81125000Y-94475000D01*
X86875000Y-66675000D02*
X86875000Y-67275000D01*
X91125000Y-70925000D02*
X91125000Y-70325000D01*
X86875000Y-70925000D02*
X86875000Y-70325000D01*
X91125000Y-66675000D02*
X90525000Y-66675000D01*
X91125000Y-70925000D02*
X90525000Y-70925000D01*
X86875000Y-70925000D02*
X87475000Y-70925000D01*
X86875000Y-66675000D02*
X87475000Y-66675000D01*
D11*
X96930000Y-143000000D02*
X96930000Y-145000000D01*
X99070000Y-145000000D02*
X99070000Y-143000000D01*
X88800000Y-141170000D02*
X90800000Y-141170000D01*
X90800000Y-139030000D02*
X88800000Y-139030000D01*
X98000000Y-129030000D02*
X96000000Y-129030000D01*
X96000000Y-131170000D02*
X98000000Y-131170000D01*
X78000000Y-139930000D02*
X76000000Y-139930000D01*
X76000000Y-142070000D02*
X78000000Y-142070000D01*
X68500000Y-95430000D02*
X66500000Y-95430000D01*
X66500000Y-97570000D02*
X68500000Y-97570000D01*
X94070000Y-64000000D02*
X94070000Y-62000000D01*
X91930000Y-62000000D02*
X91930000Y-64000000D01*
X80500000Y-103570000D02*
X82500000Y-103570000D01*
X82500000Y-101430000D02*
X80500000Y-101430000D01*
X85500000Y-64570000D02*
X87500000Y-64570000D01*
X87500000Y-62430000D02*
X85500000Y-62430000D01*
X91650000Y-150000000D02*
X96000000Y-150000000D01*
X96000000Y-150000000D02*
X96000000Y-149000000D01*
X96000000Y-149000000D02*
X91650000Y-149000000D01*
X97850000Y-151300000D02*
X97850000Y-151650000D01*
X97850000Y-151650000D02*
X99450000Y-151650000D01*
X99450000Y-151650000D02*
X99450000Y-152550000D01*
X99450000Y-152550000D02*
X91650000Y-152550000D01*
X91650000Y-152550000D02*
X91650000Y-146450000D01*
X91650000Y-146450000D02*
X99450000Y-146450000D01*
X99450000Y-146450000D02*
X99450000Y-147350000D01*
X99450000Y-147350000D02*
X97850000Y-147350000D01*
X97850000Y-147350000D02*
X97850000Y-147700000D01*
X97850000Y-152550000D02*
X97850000Y-151650000D01*
X97850000Y-146450000D02*
X97850000Y-147350000D01*
X95500000Y-151800000D02*
X93900000Y-151800000D01*
X93900000Y-151800000D02*
X93900000Y-150800000D01*
X93900000Y-150800000D02*
X95500000Y-150800000D01*
X95500000Y-150800000D02*
X95500000Y-151800000D01*
X95500000Y-147200000D02*
X93900000Y-147200000D01*
X93900000Y-147200000D02*
X93900000Y-148200000D01*
X93900000Y-148200000D02*
X95500000Y-148200000D01*
X95500000Y-148200000D02*
X95500000Y-147200000D01*
X93900000Y-150800000D02*
X91650000Y-150800000D01*
X93900000Y-151300000D02*
X91650000Y-151300000D01*
X97850000Y-151300000D02*
X99050000Y-151300000D01*
X84275000Y-158275000D02*
X84275000Y-154975000D01*
X84275000Y-154975000D02*
X91175000Y-154975000D01*
X84275000Y-158275000D02*
X91175000Y-158275000D01*
X102020000Y-144500000D02*
X102020000Y-146500000D01*
X99980000Y-146500000D02*
X99980000Y-144500000D01*
X98100000Y-139920000D02*
X96100000Y-139920000D01*
X96100000Y-137880000D02*
X98100000Y-137880000D01*
X85500000Y-143980000D02*
X87500000Y-143980000D01*
X87500000Y-146020000D02*
X85500000Y-146020000D01*
D12*
X73057143Y-148683334D02*
X73104762Y-148635715D01*
X73152381Y-148492858D01*
X73152381Y-148397620D01*
X73104762Y-148254762D01*
X73009524Y-148159524D01*
X72914286Y-148111905D01*
X72723810Y-148064286D01*
X72580952Y-148064286D01*
X72390476Y-148111905D01*
X72295238Y-148159524D01*
X72200000Y-148254762D01*
X72152381Y-148397620D01*
X72152381Y-148492858D01*
X72200000Y-148635715D01*
X72247619Y-148683334D01*
X72152381Y-149540477D02*
X72152381Y-149350000D01*
X72200000Y-149254762D01*
X72247619Y-149207143D01*
X72390476Y-149111905D01*
X72580952Y-149064286D01*
X72961905Y-149064286D01*
X73057143Y-149111905D01*
X73104762Y-149159524D01*
X73152381Y-149254762D01*
X73152381Y-149445239D01*
X73104762Y-149540477D01*
X73057143Y-149588096D01*
X72961905Y-149635715D01*
X72723810Y-149635715D01*
X72628571Y-149588096D01*
X72580952Y-149540477D01*
X72533333Y-149445239D01*
X72533333Y-149254762D01*
X72580952Y-149159524D01*
X72628571Y-149111905D01*
X72723810Y-149064286D01*
X69957143Y-144283334D02*
X70004762Y-144235715D01*
X70052381Y-144092858D01*
X70052381Y-143997620D01*
X70004762Y-143854762D01*
X69909524Y-143759524D01*
X69814286Y-143711905D01*
X69623810Y-143664286D01*
X69480952Y-143664286D01*
X69290476Y-143711905D01*
X69195238Y-143759524D01*
X69100000Y-143854762D01*
X69052381Y-143997620D01*
X69052381Y-144092858D01*
X69100000Y-144235715D01*
X69147619Y-144283334D01*
X69052381Y-145188096D02*
X69052381Y-144711905D01*
X69528571Y-144664286D01*
X69480952Y-144711905D01*
X69433333Y-144807143D01*
X69433333Y-145045239D01*
X69480952Y-145140477D01*
X69528571Y-145188096D01*
X69623810Y-145235715D01*
X69861905Y-145235715D01*
X69957143Y-145188096D01*
X70004762Y-145140477D01*
X70052381Y-145045239D01*
X70052381Y-144807143D01*
X70004762Y-144711905D01*
X69957143Y-144664286D01*
X63736594Y-33792319D02*
X64708023Y-33792319D01*
X64822308Y-33849462D01*
X64879451Y-33906605D01*
X64936594Y-34020891D01*
X64936594Y-34249462D01*
X64879451Y-34363748D01*
X64822308Y-34420891D01*
X64708023Y-34478034D01*
X63736594Y-34478034D01*
X63850880Y-34992319D02*
X63793737Y-35049462D01*
X63736594Y-35163748D01*
X63736594Y-35449462D01*
X63793737Y-35563748D01*
X63850880Y-35620891D01*
X63965166Y-35678034D01*
X64079451Y-35678034D01*
X64250880Y-35620891D01*
X64936594Y-34935177D01*
X64936594Y-35678034D01*
X66707143Y-148683334D02*
X66754762Y-148635715D01*
X66802381Y-148492858D01*
X66802381Y-148397620D01*
X66754762Y-148254762D01*
X66659524Y-148159524D01*
X66564286Y-148111905D01*
X66373810Y-148064286D01*
X66230952Y-148064286D01*
X66040476Y-148111905D01*
X65945238Y-148159524D01*
X65850000Y-148254762D01*
X65802381Y-148397620D01*
X65802381Y-148492858D01*
X65850000Y-148635715D01*
X65897619Y-148683334D01*
X66135714Y-149540477D02*
X66802381Y-149540477D01*
X65754762Y-149302381D02*
X66469048Y-149064286D01*
X66469048Y-149683334D01*
X69061905Y-146068424D02*
X69061905Y-146877948D01*
X69014286Y-146973186D01*
X68966667Y-147020805D01*
X68871429Y-147068424D01*
X68680952Y-147068424D01*
X68585714Y-147020805D01*
X68538095Y-146973186D01*
X68490476Y-146877948D01*
X68490476Y-146068424D01*
X68109524Y-146068424D02*
X67442857Y-146068424D01*
X67871429Y-147068424D01*
X67946666Y-150952381D02*
X68422857Y-150952381D01*
X68422857Y-149952381D01*
X67089523Y-150952381D02*
X67660952Y-150952381D01*
X67375238Y-150952381D02*
X67375238Y-149952381D01*
X67470476Y-150095238D01*
X67565714Y-150190476D01*
X67660952Y-150238095D01*
X97352381Y-135138095D02*
X98161905Y-135138095D01*
X98257143Y-135185714D01*
X98304762Y-135233333D01*
X98352381Y-135328571D01*
X98352381Y-135519048D01*
X98304762Y-135614286D01*
X98257143Y-135661905D01*
X98161905Y-135709524D01*
X97352381Y-135709524D01*
X97352381Y-136614286D02*
X97352381Y-136423809D01*
X97400000Y-136328571D01*
X97447619Y-136280952D01*
X97590476Y-136185714D01*
X97780952Y-136138095D01*
X98161905Y-136138095D01*
X98257143Y-136185714D01*
X98304762Y-136233333D01*
X98352381Y-136328571D01*
X98352381Y-136519048D01*
X98304762Y-136614286D01*
X98257143Y-136661905D01*
X98161905Y-136709524D01*
X97923810Y-136709524D01*
X97828571Y-136661905D01*
X97780952Y-136614286D01*
X97733333Y-136519048D01*
X97733333Y-136328571D01*
X97780952Y-136233333D01*
X97828571Y-136185714D01*
X97923810Y-136138095D01*
X93911905Y-140202381D02*
X93911905Y-141011905D01*
X93864286Y-141107143D01*
X93816667Y-141154762D01*
X93721429Y-141202381D01*
X93530952Y-141202381D01*
X93435714Y-141154762D01*
X93388095Y-141107143D01*
X93340476Y-141011905D01*
X93340476Y-140202381D01*
X92388095Y-140202381D02*
X92864286Y-140202381D01*
X92911905Y-140678571D01*
X92864286Y-140630952D01*
X92769048Y-140583333D01*
X92530952Y-140583333D01*
X92435714Y-140630952D01*
X92388095Y-140678571D01*
X92340476Y-140773810D01*
X92340476Y-141011905D01*
X92388095Y-141107143D01*
X92435714Y-141154762D01*
X92530952Y-141202381D01*
X92769048Y-141202381D01*
X92864286Y-141154762D01*
X92911905Y-141107143D01*
X79674405Y-130964881D02*
X79674405Y-131774405D01*
X79626786Y-131869643D01*
X79579167Y-131917262D01*
X79483929Y-131964881D01*
X79293452Y-131964881D01*
X79198214Y-131917262D01*
X79150595Y-131869643D01*
X79102976Y-131774405D01*
X79102976Y-130964881D01*
X78198214Y-131298214D02*
X78198214Y-131964881D01*
X78436310Y-130917262D02*
X78674405Y-131631548D01*
X78055357Y-131631548D01*
X81852381Y-95238095D02*
X82661905Y-95238095D01*
X82757143Y-95285714D01*
X82804762Y-95333333D01*
X82852381Y-95428571D01*
X82852381Y-95619048D01*
X82804762Y-95714286D01*
X82757143Y-95761905D01*
X82661905Y-95809524D01*
X81852381Y-95809524D01*
X81852381Y-96190476D02*
X81852381Y-96809524D01*
X82233333Y-96476190D01*
X82233333Y-96619048D01*
X82280952Y-96714286D01*
X82328571Y-96761905D01*
X82423810Y-96809524D01*
X82661905Y-96809524D01*
X82757143Y-96761905D01*
X82804762Y-96714286D01*
X82852381Y-96619048D01*
X82852381Y-96333333D01*
X82804762Y-96238095D01*
X82757143Y-96190476D01*
X89761905Y-64852381D02*
X89761905Y-65661905D01*
X89714286Y-65757143D01*
X89666667Y-65804762D01*
X89571429Y-65852381D01*
X89380952Y-65852381D01*
X89285714Y-65804762D01*
X89238095Y-65757143D01*
X89190476Y-65661905D01*
X89190476Y-64852381D01*
X88190476Y-65852381D02*
X88761905Y-65852381D01*
X88476191Y-65852381D02*
X88476191Y-64852381D01*
X88571429Y-64995238D01*
X88666667Y-65090476D01*
X88761905Y-65138095D01*
X100302381Y-143357143D02*
X99826190Y-143023809D01*
X100302381Y-142785714D02*
X99302381Y-142785714D01*
X99302381Y-143166667D01*
X99350000Y-143261905D01*
X99397619Y-143309524D01*
X99492857Y-143357143D01*
X99635714Y-143357143D01*
X99730952Y-143309524D01*
X99778571Y-143261905D01*
X99826190Y-143166667D01*
X99826190Y-142785714D01*
X100302381Y-144309524D02*
X100302381Y-143738095D01*
X100302381Y-144023809D02*
X99302381Y-144023809D01*
X99445238Y-143928571D01*
X99540476Y-143833333D01*
X99588095Y-143738095D01*
X99302381Y-145166667D02*
X99302381Y-144976190D01*
X99350000Y-144880952D01*
X99397619Y-144833333D01*
X99540476Y-144738095D01*
X99730952Y-144690476D01*
X100111905Y-144690476D01*
X100207143Y-144738095D01*
X100254762Y-144785714D01*
X100302381Y-144880952D01*
X100302381Y-145071429D01*
X100254762Y-145166667D01*
X100207143Y-145214286D01*
X100111905Y-145261905D01*
X99873810Y-145261905D01*
X99778571Y-145214286D01*
X99730952Y-145166667D01*
X99683333Y-145071429D01*
X99683333Y-144880952D01*
X99730952Y-144785714D01*
X99778571Y-144738095D01*
X99873810Y-144690476D01*
X90442857Y-138702381D02*
X90776191Y-138226190D01*
X91014286Y-138702381D02*
X91014286Y-137702381D01*
X90633333Y-137702381D01*
X90538095Y-137750000D01*
X90490476Y-137797619D01*
X90442857Y-137892857D01*
X90442857Y-138035714D01*
X90490476Y-138130952D01*
X90538095Y-138178571D01*
X90633333Y-138226190D01*
X91014286Y-138226190D01*
X89490476Y-138702381D02*
X90061905Y-138702381D01*
X89776191Y-138702381D02*
X89776191Y-137702381D01*
X89871429Y-137845238D01*
X89966667Y-137940476D01*
X90061905Y-137988095D01*
X88585714Y-137702381D02*
X89061905Y-137702381D01*
X89109524Y-138178571D01*
X89061905Y-138130952D01*
X88966667Y-138083333D01*
X88728571Y-138083333D01*
X88633333Y-138130952D01*
X88585714Y-138178571D01*
X88538095Y-138273810D01*
X88538095Y-138511905D01*
X88585714Y-138607143D01*
X88633333Y-138654762D01*
X88728571Y-138702381D01*
X88966667Y-138702381D01*
X89061905Y-138654762D01*
X89109524Y-138607143D01*
X97642857Y-132402381D02*
X97976191Y-131926190D01*
X98214286Y-132402381D02*
X98214286Y-131402381D01*
X97833333Y-131402381D01*
X97738095Y-131450000D01*
X97690476Y-131497619D01*
X97642857Y-131592857D01*
X97642857Y-131735714D01*
X97690476Y-131830952D01*
X97738095Y-131878571D01*
X97833333Y-131926190D01*
X98214286Y-131926190D01*
X96690476Y-132402381D02*
X97261905Y-132402381D01*
X96976191Y-132402381D02*
X96976191Y-131402381D01*
X97071429Y-131545238D01*
X97166667Y-131640476D01*
X97261905Y-131688095D01*
X95833333Y-131735714D02*
X95833333Y-132402381D01*
X96071429Y-131354762D02*
X96309524Y-132069048D01*
X95690476Y-132069048D01*
X77166666Y-143302381D02*
X77500000Y-142826190D01*
X77738095Y-143302381D02*
X77738095Y-142302381D01*
X77357142Y-142302381D01*
X77261904Y-142350000D01*
X77214285Y-142397619D01*
X77166666Y-142492857D01*
X77166666Y-142635714D01*
X77214285Y-142730952D01*
X77261904Y-142778571D01*
X77357142Y-142826190D01*
X77738095Y-142826190D01*
X76690476Y-143302381D02*
X76500000Y-143302381D01*
X76404761Y-143254762D01*
X76357142Y-143207143D01*
X76261904Y-143064286D01*
X76214285Y-142873810D01*
X76214285Y-142492857D01*
X76261904Y-142397619D01*
X76309523Y-142350000D01*
X76404761Y-142302381D01*
X76595238Y-142302381D01*
X76690476Y-142350000D01*
X76738095Y-142397619D01*
X76785714Y-142492857D01*
X76785714Y-142730952D01*
X76738095Y-142826190D01*
X76690476Y-142873810D01*
X76595238Y-142921429D01*
X76404761Y-142921429D01*
X76309523Y-142873810D01*
X76261904Y-142826190D01*
X76214285Y-142730952D01*
X67666666Y-98802381D02*
X68000000Y-98326190D01*
X68238095Y-98802381D02*
X68238095Y-97802381D01*
X67857142Y-97802381D01*
X67761904Y-97850000D01*
X67714285Y-97897619D01*
X67666666Y-97992857D01*
X67666666Y-98135714D01*
X67714285Y-98230952D01*
X67761904Y-98278571D01*
X67857142Y-98326190D01*
X68238095Y-98326190D01*
X66809523Y-98135714D02*
X66809523Y-98802381D01*
X67047619Y-97754762D02*
X67285714Y-98469048D01*
X66666666Y-98469048D01*
X91602381Y-62833334D02*
X91126190Y-62500000D01*
X91602381Y-62261905D02*
X90602381Y-62261905D01*
X90602381Y-62642858D01*
X90650000Y-62738096D01*
X90697619Y-62785715D01*
X90792857Y-62833334D01*
X90935714Y-62833334D01*
X91030952Y-62785715D01*
X91078571Y-62738096D01*
X91126190Y-62642858D01*
X91126190Y-62261905D01*
X90602381Y-63166667D02*
X90602381Y-63785715D01*
X90983333Y-63452381D01*
X90983333Y-63595239D01*
X91030952Y-63690477D01*
X91078571Y-63738096D01*
X91173810Y-63785715D01*
X91411905Y-63785715D01*
X91507143Y-63738096D01*
X91554762Y-63690477D01*
X91602381Y-63595239D01*
X91602381Y-63309524D01*
X91554762Y-63214286D01*
X91507143Y-63166667D01*
X81666666Y-101102381D02*
X82000000Y-100626190D01*
X82238095Y-101102381D02*
X82238095Y-100102381D01*
X81857142Y-100102381D01*
X81761904Y-100150000D01*
X81714285Y-100197619D01*
X81666666Y-100292857D01*
X81666666Y-100435714D01*
X81714285Y-100530952D01*
X81761904Y-100578571D01*
X81857142Y-100626190D01*
X82238095Y-100626190D01*
X81285714Y-100197619D02*
X81238095Y-100150000D01*
X81142857Y-100102381D01*
X80904761Y-100102381D01*
X80809523Y-100150000D01*
X80761904Y-100197619D01*
X80714285Y-100292857D01*
X80714285Y-100388095D01*
X80761904Y-100530952D01*
X81333333Y-101102381D01*
X80714285Y-101102381D01*
X86666666Y-62102381D02*
X87000000Y-61626190D01*
X87238095Y-62102381D02*
X87238095Y-61102381D01*
X86857142Y-61102381D01*
X86761904Y-61150000D01*
X86714285Y-61197619D01*
X86666666Y-61292857D01*
X86666666Y-61435714D01*
X86714285Y-61530952D01*
X86761904Y-61578571D01*
X86857142Y-61626190D01*
X87238095Y-61626190D01*
X85714285Y-62102381D02*
X86285714Y-62102381D01*
X86000000Y-62102381D02*
X86000000Y-61102381D01*
X86095238Y-61245238D01*
X86190476Y-61340476D01*
X86285714Y-61388095D01*
X99902381Y-148666667D02*
X100616667Y-148666667D01*
X100759524Y-148619047D01*
X100854762Y-148523809D01*
X100902381Y-148380952D01*
X100902381Y-148285714D01*
X100902381Y-149666667D02*
X100902381Y-149095238D01*
X100902381Y-149380952D02*
X99902381Y-149380952D01*
X100045238Y-149285714D01*
X100140476Y-149190476D01*
X100188095Y-149095238D01*
X89413095Y-159577381D02*
X89413095Y-158577381D01*
X89175000Y-158577381D01*
X89032142Y-158625000D01*
X88936904Y-158720238D01*
X88889285Y-158815476D01*
X88841666Y-159005952D01*
X88841666Y-159148810D01*
X88889285Y-159339286D01*
X88936904Y-159434524D01*
X89032142Y-159529762D01*
X89175000Y-159577381D01*
X89413095Y-159577381D01*
X88460714Y-158672619D02*
X88413095Y-158625000D01*
X88317857Y-158577381D01*
X88079761Y-158577381D01*
X87984523Y-158625000D01*
X87936904Y-158672619D01*
X87889285Y-158767857D01*
X87889285Y-158863095D01*
X87936904Y-159005952D01*
X88508333Y-159577381D01*
X87889285Y-159577381D01*
X103107143Y-145333334D02*
X103154762Y-145285715D01*
X103202381Y-145142858D01*
X103202381Y-145047620D01*
X103154762Y-144904762D01*
X103059524Y-144809524D01*
X102964286Y-144761905D01*
X102773810Y-144714286D01*
X102630952Y-144714286D01*
X102440476Y-144761905D01*
X102345238Y-144809524D01*
X102250000Y-144904762D01*
X102202381Y-145047620D01*
X102202381Y-145142858D01*
X102250000Y-145285715D01*
X102297619Y-145333334D01*
X102202381Y-145666667D02*
X102202381Y-146285715D01*
X102583333Y-145952381D01*
X102583333Y-146095239D01*
X102630952Y-146190477D01*
X102678571Y-146238096D01*
X102773810Y-146285715D01*
X103011905Y-146285715D01*
X103107143Y-146238096D01*
X103154762Y-146190477D01*
X103202381Y-146095239D01*
X103202381Y-145809524D01*
X103154762Y-145714286D01*
X103107143Y-145666667D01*
X97266666Y-141007143D02*
X97314285Y-141054762D01*
X97457142Y-141102381D01*
X97552380Y-141102381D01*
X97695238Y-141054762D01*
X97790476Y-140959524D01*
X97838095Y-140864286D01*
X97885714Y-140673810D01*
X97885714Y-140530952D01*
X97838095Y-140340476D01*
X97790476Y-140245238D01*
X97695238Y-140150000D01*
X97552380Y-140102381D01*
X97457142Y-140102381D01*
X97314285Y-140150000D01*
X97266666Y-140197619D01*
X96885714Y-140197619D02*
X96838095Y-140150000D01*
X96742857Y-140102381D01*
X96504761Y-140102381D01*
X96409523Y-140150000D01*
X96361904Y-140197619D01*
X96314285Y-140292857D01*
X96314285Y-140388095D01*
X96361904Y-140530952D01*
X96933333Y-141102381D01*
X96314285Y-141102381D01*
X86666666Y-143607143D02*
X86714285Y-143654762D01*
X86857142Y-143702381D01*
X86952380Y-143702381D01*
X87095238Y-143654762D01*
X87190476Y-143559524D01*
X87238095Y-143464286D01*
X87285714Y-143273810D01*
X87285714Y-143130952D01*
X87238095Y-142940476D01*
X87190476Y-142845238D01*
X87095238Y-142750000D01*
X86952380Y-142702381D01*
X86857142Y-142702381D01*
X86714285Y-142750000D01*
X86666666Y-142797619D01*
X85714285Y-143702381D02*
X86285714Y-143702381D01*
X86000000Y-143702381D02*
X86000000Y-142702381D01*
X86095238Y-142845238D01*
X86190476Y-142940476D01*
X86285714Y-142988095D01*
M02*
