G04 #@! TF.FileFunction,Paste,Top*
%FSLAX46Y46*%
G04 Gerber Fmt 4.6, Leading zero omitted, Abs format (unit mm)*
G04 Created by KiCad (PCBNEW 4.0.6) date 07/28/17 14:14:33*
%MOMM*%
%LPD*%
G01*
G04 APERTURE LIST*
%ADD10C,0.100000*%
%ADD11R,1.000000X0.600000*%
%ADD12R,0.800000X1.000000*%
%ADD13R,1.700000X2.000000*%
%ADD14R,2.000000X1.700000*%
%ADD15R,1.500000X1.500000*%
G04 APERTURE END LIST*
D10*
D11*
X70200000Y-113100000D03*
X70200000Y-116900000D03*
X65800000Y-116900000D03*
D12*
X71200000Y-115000000D03*
X65000000Y-115000000D03*
D11*
X65800000Y-113100000D03*
X101200000Y-113100000D03*
X101200000Y-116900000D03*
X96800000Y-116900000D03*
D12*
X102200000Y-115000000D03*
X96000000Y-115000000D03*
D11*
X96800000Y-113100000D03*
X92200000Y-153100000D03*
X92200000Y-156900000D03*
X87800000Y-156900000D03*
D12*
X93200000Y-155000000D03*
X87000000Y-155000000D03*
D11*
X87800000Y-153100000D03*
X81200000Y-104100000D03*
X81200000Y-107900000D03*
X76800000Y-107900000D03*
D12*
X82200000Y-106000000D03*
X76000000Y-106000000D03*
D11*
X76800000Y-104100000D03*
X81200000Y-153100000D03*
X81200000Y-156900000D03*
X76800000Y-156900000D03*
D12*
X82200000Y-155000000D03*
X76000000Y-155000000D03*
D11*
X76800000Y-153100000D03*
X70200000Y-104100000D03*
X70200000Y-107900000D03*
X65800000Y-107900000D03*
D12*
X71200000Y-106000000D03*
X65000000Y-106000000D03*
D11*
X65800000Y-104100000D03*
X101200000Y-104100000D03*
X101200000Y-107900000D03*
X96800000Y-107900000D03*
D12*
X102200000Y-106000000D03*
X96000000Y-106000000D03*
D11*
X96800000Y-104100000D03*
X81200000Y-143100000D03*
X81200000Y-146900000D03*
X76800000Y-146900000D03*
D12*
X82200000Y-145000000D03*
X76000000Y-145000000D03*
D11*
X76800000Y-143100000D03*
X81200000Y-94100000D03*
X81200000Y-97900000D03*
X76800000Y-97900000D03*
D12*
X82200000Y-96000000D03*
X76000000Y-96000000D03*
D11*
X76800000Y-94100000D03*
X70200000Y-153100000D03*
X70200000Y-156900000D03*
X65800000Y-156900000D03*
D12*
X71200000Y-155000000D03*
X65000000Y-155000000D03*
D11*
X65800000Y-153100000D03*
X70200000Y-94100000D03*
X70200000Y-97900000D03*
X65800000Y-97900000D03*
D12*
X71200000Y-96000000D03*
X65000000Y-96000000D03*
D11*
X65800000Y-94100000D03*
X101200000Y-94100000D03*
X101200000Y-97900000D03*
X96800000Y-97900000D03*
D12*
X102200000Y-96000000D03*
X96000000Y-96000000D03*
D11*
X96800000Y-94100000D03*
X81200000Y-133100000D03*
X81200000Y-136900000D03*
X76800000Y-136900000D03*
D12*
X82200000Y-135000000D03*
X76000000Y-135000000D03*
D11*
X76800000Y-133100000D03*
X81400000Y-84200000D03*
X81400000Y-88000000D03*
X77000000Y-88000000D03*
D12*
X82400000Y-86100000D03*
X76200000Y-86100000D03*
D11*
X77000000Y-84200000D03*
X70200000Y-143100000D03*
X70200000Y-146900000D03*
X65800000Y-146900000D03*
D12*
X71200000Y-145000000D03*
X65000000Y-145000000D03*
D11*
X65800000Y-143100000D03*
X101200000Y-74100000D03*
X101200000Y-77900000D03*
X96800000Y-77900000D03*
D12*
X102200000Y-76000000D03*
X96000000Y-76000000D03*
D11*
X96800000Y-74100000D03*
X81200000Y-123000000D03*
X81200000Y-126800000D03*
X76800000Y-126800000D03*
D12*
X82200000Y-124900000D03*
X76000000Y-124900000D03*
D11*
X76800000Y-123000000D03*
X81200000Y-74100000D03*
X81200000Y-77900000D03*
X76800000Y-77900000D03*
D12*
X82200000Y-76000000D03*
X76000000Y-76000000D03*
D11*
X76800000Y-74100000D03*
X70200000Y-133100000D03*
X70200000Y-136900000D03*
X65800000Y-136900000D03*
D12*
X71200000Y-135000000D03*
X65000000Y-135000000D03*
D11*
X65800000Y-133100000D03*
X70000000Y-74000000D03*
X70000000Y-77800000D03*
X65600000Y-77800000D03*
D12*
X71000000Y-75900000D03*
X64800000Y-75900000D03*
D11*
X65600000Y-74000000D03*
X81200000Y-113100000D03*
X81200000Y-116900000D03*
X76800000Y-116900000D03*
D12*
X82200000Y-115000000D03*
X76000000Y-115000000D03*
D11*
X76800000Y-113100000D03*
X81200000Y-64100000D03*
X81200000Y-67900000D03*
X76800000Y-67900000D03*
D12*
X82200000Y-66000000D03*
X76000000Y-66000000D03*
D11*
X76800000Y-64100000D03*
X70200000Y-123100000D03*
X70200000Y-126900000D03*
X65800000Y-126900000D03*
D12*
X71200000Y-125000000D03*
X65000000Y-125000000D03*
D11*
X65800000Y-123100000D03*
X70200000Y-64100000D03*
X70200000Y-67900000D03*
X65800000Y-67900000D03*
D12*
X71200000Y-66000000D03*
X65000000Y-66000000D03*
D11*
X65800000Y-64100000D03*
D13*
X73500000Y-115000000D03*
X73500000Y-111000000D03*
D14*
X101000000Y-119500000D03*
X97000000Y-119500000D03*
X92000000Y-150500000D03*
X88000000Y-150500000D03*
X84500000Y-106000000D03*
X88500000Y-106000000D03*
X81000000Y-150500000D03*
X77000000Y-150500000D03*
D13*
X73500000Y-106000000D03*
X73500000Y-102000000D03*
D14*
X84500000Y-145000000D03*
X88500000Y-145000000D03*
X85000000Y-96000000D03*
X89000000Y-96000000D03*
D13*
X73500000Y-155000000D03*
X73500000Y-151000000D03*
X73600000Y-94850000D03*
X73600000Y-90850000D03*
D14*
X101000000Y-110500000D03*
X97000000Y-110500000D03*
X101000000Y-101000000D03*
X97000000Y-101000000D03*
X84500000Y-135000000D03*
X88500000Y-135000000D03*
X85000000Y-86000000D03*
X89000000Y-86000000D03*
D13*
X73500000Y-145000000D03*
X73500000Y-141000000D03*
X73500000Y-86000000D03*
X73500000Y-82000000D03*
D14*
X101000000Y-81000000D03*
X97000000Y-81000000D03*
X84500000Y-125000000D03*
X88500000Y-125000000D03*
X84500000Y-76000000D03*
X88500000Y-76000000D03*
D13*
X73500000Y-135000000D03*
X73500000Y-131000000D03*
X73500000Y-76000000D03*
X73500000Y-72000000D03*
D14*
X101000000Y-71000000D03*
X97000000Y-71000000D03*
X84500000Y-115000000D03*
X88500000Y-115000000D03*
X84850000Y-65700000D03*
X88850000Y-65700000D03*
D13*
X73500000Y-125000000D03*
X73500000Y-121000000D03*
X73500000Y-66000000D03*
X73500000Y-62000000D03*
D14*
X95500000Y-156500000D03*
X99500000Y-156500000D03*
D13*
X92500000Y-47000000D03*
X92500000Y-43000000D03*
D14*
X88500000Y-130400000D03*
X84500000Y-130400000D03*
D13*
X89500000Y-47000000D03*
X89500000Y-43000000D03*
D14*
X84500000Y-127600000D03*
X88500000Y-127600000D03*
X89000000Y-93400000D03*
X85000000Y-93400000D03*
X69100000Y-99500000D03*
X73100000Y-99500000D03*
X89000000Y-98600000D03*
X85000000Y-98600000D03*
D15*
X102000000Y-156300000D03*
X102000000Y-153000000D03*
D11*
X101200000Y-64100000D03*
X101200000Y-67900000D03*
X96800000Y-67900000D03*
D12*
X102200000Y-66000000D03*
X96000000Y-66000000D03*
D11*
X96800000Y-64100000D03*
X70200000Y-84100000D03*
X70200000Y-87900000D03*
X65800000Y-87900000D03*
D12*
X71200000Y-86000000D03*
X65000000Y-86000000D03*
D11*
X65800000Y-84100000D03*
M02*
