G04 #@! TF.FileFunction,Legend,Top*
%FSLAX46Y46*%
G04 Gerber Fmt 4.6, Leading zero omitted, Abs format (unit mm)*
G04 Created by KiCad (PCBNEW 4.0.6) date 07/28/17 14:14:33*
%MOMM*%
%LPD*%
G01*
G04 APERTURE LIST*
%ADD10C,0.100000*%
%ADD11C,0.150000*%
%ADD12C,0.120000*%
G04 APERTURE END LIST*
D10*
D11*
X70450000Y-113150000D02*
X65550000Y-113150000D01*
X65550000Y-113150000D02*
X65550000Y-116850000D01*
X65550000Y-116850000D02*
X70450000Y-116850000D01*
X70450000Y-116850000D02*
X70450000Y-113150000D01*
X101450000Y-113150000D02*
X96550000Y-113150000D01*
X96550000Y-113150000D02*
X96550000Y-116850000D01*
X96550000Y-116850000D02*
X101450000Y-116850000D01*
X101450000Y-116850000D02*
X101450000Y-113150000D01*
X92450000Y-153150000D02*
X87550000Y-153150000D01*
X87550000Y-153150000D02*
X87550000Y-156850000D01*
X87550000Y-156850000D02*
X92450000Y-156850000D01*
X92450000Y-156850000D02*
X92450000Y-153150000D01*
X81450000Y-104150000D02*
X76550000Y-104150000D01*
X76550000Y-104150000D02*
X76550000Y-107850000D01*
X76550000Y-107850000D02*
X81450000Y-107850000D01*
X81450000Y-107850000D02*
X81450000Y-104150000D01*
X81450000Y-153150000D02*
X76550000Y-153150000D01*
X76550000Y-153150000D02*
X76550000Y-156850000D01*
X76550000Y-156850000D02*
X81450000Y-156850000D01*
X81450000Y-156850000D02*
X81450000Y-153150000D01*
X70450000Y-104150000D02*
X65550000Y-104150000D01*
X65550000Y-104150000D02*
X65550000Y-107850000D01*
X65550000Y-107850000D02*
X70450000Y-107850000D01*
X70450000Y-107850000D02*
X70450000Y-104150000D01*
X101450000Y-104150000D02*
X96550000Y-104150000D01*
X96550000Y-104150000D02*
X96550000Y-107850000D01*
X96550000Y-107850000D02*
X101450000Y-107850000D01*
X101450000Y-107850000D02*
X101450000Y-104150000D01*
X81450000Y-143150000D02*
X76550000Y-143150000D01*
X76550000Y-143150000D02*
X76550000Y-146850000D01*
X76550000Y-146850000D02*
X81450000Y-146850000D01*
X81450000Y-146850000D02*
X81450000Y-143150000D01*
X81450000Y-94150000D02*
X76550000Y-94150000D01*
X76550000Y-94150000D02*
X76550000Y-97850000D01*
X76550000Y-97850000D02*
X81450000Y-97850000D01*
X81450000Y-97850000D02*
X81450000Y-94150000D01*
X70450000Y-153150000D02*
X65550000Y-153150000D01*
X65550000Y-153150000D02*
X65550000Y-156850000D01*
X65550000Y-156850000D02*
X70450000Y-156850000D01*
X70450000Y-156850000D02*
X70450000Y-153150000D01*
X70450000Y-94150000D02*
X65550000Y-94150000D01*
X65550000Y-94150000D02*
X65550000Y-97850000D01*
X65550000Y-97850000D02*
X70450000Y-97850000D01*
X70450000Y-97850000D02*
X70450000Y-94150000D01*
X101450000Y-94150000D02*
X96550000Y-94150000D01*
X96550000Y-94150000D02*
X96550000Y-97850000D01*
X96550000Y-97850000D02*
X101450000Y-97850000D01*
X101450000Y-97850000D02*
X101450000Y-94150000D01*
X81450000Y-133150000D02*
X76550000Y-133150000D01*
X76550000Y-133150000D02*
X76550000Y-136850000D01*
X76550000Y-136850000D02*
X81450000Y-136850000D01*
X81450000Y-136850000D02*
X81450000Y-133150000D01*
X81650000Y-84250000D02*
X76750000Y-84250000D01*
X76750000Y-84250000D02*
X76750000Y-87950000D01*
X76750000Y-87950000D02*
X81650000Y-87950000D01*
X81650000Y-87950000D02*
X81650000Y-84250000D01*
X70450000Y-143150000D02*
X65550000Y-143150000D01*
X65550000Y-143150000D02*
X65550000Y-146850000D01*
X65550000Y-146850000D02*
X70450000Y-146850000D01*
X70450000Y-146850000D02*
X70450000Y-143150000D01*
X101450000Y-74150000D02*
X96550000Y-74150000D01*
X96550000Y-74150000D02*
X96550000Y-77850000D01*
X96550000Y-77850000D02*
X101450000Y-77850000D01*
X101450000Y-77850000D02*
X101450000Y-74150000D01*
X81450000Y-123050000D02*
X76550000Y-123050000D01*
X76550000Y-123050000D02*
X76550000Y-126750000D01*
X76550000Y-126750000D02*
X81450000Y-126750000D01*
X81450000Y-126750000D02*
X81450000Y-123050000D01*
X81450000Y-74150000D02*
X76550000Y-74150000D01*
X76550000Y-74150000D02*
X76550000Y-77850000D01*
X76550000Y-77850000D02*
X81450000Y-77850000D01*
X81450000Y-77850000D02*
X81450000Y-74150000D01*
X70450000Y-133150000D02*
X65550000Y-133150000D01*
X65550000Y-133150000D02*
X65550000Y-136850000D01*
X65550000Y-136850000D02*
X70450000Y-136850000D01*
X70450000Y-136850000D02*
X70450000Y-133150000D01*
X70250000Y-74050000D02*
X65350000Y-74050000D01*
X65350000Y-74050000D02*
X65350000Y-77750000D01*
X65350000Y-77750000D02*
X70250000Y-77750000D01*
X70250000Y-77750000D02*
X70250000Y-74050000D01*
X81450000Y-113150000D02*
X76550000Y-113150000D01*
X76550000Y-113150000D02*
X76550000Y-116850000D01*
X76550000Y-116850000D02*
X81450000Y-116850000D01*
X81450000Y-116850000D02*
X81450000Y-113150000D01*
X81450000Y-64150000D02*
X76550000Y-64150000D01*
X76550000Y-64150000D02*
X76550000Y-67850000D01*
X76550000Y-67850000D02*
X81450000Y-67850000D01*
X81450000Y-67850000D02*
X81450000Y-64150000D01*
X70450000Y-123150000D02*
X65550000Y-123150000D01*
X65550000Y-123150000D02*
X65550000Y-126850000D01*
X65550000Y-126850000D02*
X70450000Y-126850000D01*
X70450000Y-126850000D02*
X70450000Y-123150000D01*
X70450000Y-64150000D02*
X65550000Y-64150000D01*
X65550000Y-64150000D02*
X65550000Y-67850000D01*
X65550000Y-67850000D02*
X70450000Y-67850000D01*
X70450000Y-67850000D02*
X70450000Y-64150000D01*
D12*
X74570000Y-112000000D02*
X74570000Y-114000000D01*
X72430000Y-114000000D02*
X72430000Y-112000000D01*
X98000000Y-118430000D02*
X100000000Y-118430000D01*
X100000000Y-120570000D02*
X98000000Y-120570000D01*
X89000000Y-149430000D02*
X91000000Y-149430000D01*
X91000000Y-151570000D02*
X89000000Y-151570000D01*
X87500000Y-107070000D02*
X85500000Y-107070000D01*
X85500000Y-104930000D02*
X87500000Y-104930000D01*
X78000000Y-149430000D02*
X80000000Y-149430000D01*
X80000000Y-151570000D02*
X78000000Y-151570000D01*
X74570000Y-103000000D02*
X74570000Y-105000000D01*
X72430000Y-105000000D02*
X72430000Y-103000000D01*
X87500000Y-146070000D02*
X85500000Y-146070000D01*
X85500000Y-143930000D02*
X87500000Y-143930000D01*
X88000000Y-97070000D02*
X86000000Y-97070000D01*
X86000000Y-94930000D02*
X88000000Y-94930000D01*
X74570000Y-152000000D02*
X74570000Y-154000000D01*
X72430000Y-154000000D02*
X72430000Y-152000000D01*
X74670000Y-91850000D02*
X74670000Y-93850000D01*
X72530000Y-93850000D02*
X72530000Y-91850000D01*
X98000000Y-109430000D02*
X100000000Y-109430000D01*
X100000000Y-111570000D02*
X98000000Y-111570000D01*
X98000000Y-99930000D02*
X100000000Y-99930000D01*
X100000000Y-102070000D02*
X98000000Y-102070000D01*
X87500000Y-136070000D02*
X85500000Y-136070000D01*
X85500000Y-133930000D02*
X87500000Y-133930000D01*
X88000000Y-87070000D02*
X86000000Y-87070000D01*
X86000000Y-84930000D02*
X88000000Y-84930000D01*
X74570000Y-142000000D02*
X74570000Y-144000000D01*
X72430000Y-144000000D02*
X72430000Y-142000000D01*
X74570000Y-83000000D02*
X74570000Y-85000000D01*
X72430000Y-85000000D02*
X72430000Y-83000000D01*
X98000000Y-79930000D02*
X100000000Y-79930000D01*
X100000000Y-82070000D02*
X98000000Y-82070000D01*
X87500000Y-126070000D02*
X85500000Y-126070000D01*
X85500000Y-123930000D02*
X87500000Y-123930000D01*
X87500000Y-77070000D02*
X85500000Y-77070000D01*
X85500000Y-74930000D02*
X87500000Y-74930000D01*
X74570000Y-132000000D02*
X74570000Y-134000000D01*
X72430000Y-134000000D02*
X72430000Y-132000000D01*
X74570000Y-73000000D02*
X74570000Y-75000000D01*
X72430000Y-75000000D02*
X72430000Y-73000000D01*
X98000000Y-69930000D02*
X100000000Y-69930000D01*
X100000000Y-72070000D02*
X98000000Y-72070000D01*
X87500000Y-116070000D02*
X85500000Y-116070000D01*
X85500000Y-113930000D02*
X87500000Y-113930000D01*
X87850000Y-66770000D02*
X85850000Y-66770000D01*
X85850000Y-64630000D02*
X87850000Y-64630000D01*
X74570000Y-122000000D02*
X74570000Y-124000000D01*
X72430000Y-124000000D02*
X72430000Y-122000000D01*
X74570000Y-63000000D02*
X74570000Y-65000000D01*
X72430000Y-65000000D02*
X72430000Y-63000000D01*
X98500000Y-157570000D02*
X96500000Y-157570000D01*
X96500000Y-155430000D02*
X98500000Y-155430000D01*
X93570000Y-44000000D02*
X93570000Y-46000000D01*
X91430000Y-46000000D02*
X91430000Y-44000000D01*
X85500000Y-129330000D02*
X87500000Y-129330000D01*
X87500000Y-131470000D02*
X85500000Y-131470000D01*
X90570000Y-44000000D02*
X90570000Y-46000000D01*
X88430000Y-46000000D02*
X88430000Y-44000000D01*
X87500000Y-128670000D02*
X85500000Y-128670000D01*
X85500000Y-126530000D02*
X87500000Y-126530000D01*
X86000000Y-92330000D02*
X88000000Y-92330000D01*
X88000000Y-94470000D02*
X86000000Y-94470000D01*
X72100000Y-100570000D02*
X70100000Y-100570000D01*
X70100000Y-98430000D02*
X72100000Y-98430000D01*
X86000000Y-97530000D02*
X88000000Y-97530000D01*
X88000000Y-99670000D02*
X86000000Y-99670000D01*
X102850000Y-152150000D02*
X101150000Y-152150000D01*
X101150000Y-152200000D02*
X101150000Y-156250000D01*
X102850000Y-152200000D02*
X102850000Y-156250000D01*
D11*
X101450000Y-64150000D02*
X96550000Y-64150000D01*
X96550000Y-64150000D02*
X96550000Y-67850000D01*
X96550000Y-67850000D02*
X101450000Y-67850000D01*
X101450000Y-67850000D02*
X101450000Y-64150000D01*
X70450000Y-84150000D02*
X65550000Y-84150000D01*
X65550000Y-84150000D02*
X65550000Y-87850000D01*
X65550000Y-87850000D02*
X70450000Y-87850000D01*
X70450000Y-87850000D02*
X70450000Y-84150000D01*
X82085714Y-58502381D02*
X82085714Y-57502381D01*
X82323809Y-57502381D01*
X82466667Y-57550000D01*
X82561905Y-57645238D01*
X82609524Y-57740476D01*
X82657143Y-57930952D01*
X82657143Y-58073810D01*
X82609524Y-58264286D01*
X82561905Y-58359524D01*
X82466667Y-58454762D01*
X82323809Y-58502381D01*
X82085714Y-58502381D01*
X83038095Y-58454762D02*
X83180952Y-58502381D01*
X83419048Y-58502381D01*
X83514286Y-58454762D01*
X83561905Y-58407143D01*
X83609524Y-58311905D01*
X83609524Y-58216667D01*
X83561905Y-58121429D01*
X83514286Y-58073810D01*
X83419048Y-58026190D01*
X83228571Y-57978571D01*
X83133333Y-57930952D01*
X83085714Y-57883333D01*
X83038095Y-57788095D01*
X83038095Y-57692857D01*
X83085714Y-57597619D01*
X83133333Y-57550000D01*
X83228571Y-57502381D01*
X83466667Y-57502381D01*
X83609524Y-57550000D01*
X84561905Y-58502381D02*
X83990476Y-58502381D01*
X84276190Y-58502381D02*
X84276190Y-57502381D01*
X84180952Y-57645238D01*
X84085714Y-57740476D01*
X83990476Y-57788095D01*
X66761905Y-118504762D02*
X66904762Y-118552381D01*
X67142858Y-118552381D01*
X67238096Y-118504762D01*
X67285715Y-118457143D01*
X67333334Y-118361905D01*
X67333334Y-118266667D01*
X67285715Y-118171429D01*
X67238096Y-118123810D01*
X67142858Y-118076190D01*
X66952381Y-118028571D01*
X66857143Y-117980952D01*
X66809524Y-117933333D01*
X66761905Y-117838095D01*
X66761905Y-117742857D01*
X66809524Y-117647619D01*
X66857143Y-117600000D01*
X66952381Y-117552381D01*
X67190477Y-117552381D01*
X67333334Y-117600000D01*
X67714286Y-117647619D02*
X67761905Y-117600000D01*
X67857143Y-117552381D01*
X68095239Y-117552381D01*
X68190477Y-117600000D01*
X68238096Y-117647619D01*
X68285715Y-117742857D01*
X68285715Y-117838095D01*
X68238096Y-117980952D01*
X67666667Y-118552381D01*
X68285715Y-118552381D01*
X69142858Y-117552381D02*
X68952381Y-117552381D01*
X68857143Y-117600000D01*
X68809524Y-117647619D01*
X68714286Y-117790476D01*
X68666667Y-117980952D01*
X68666667Y-118361905D01*
X68714286Y-118457143D01*
X68761905Y-118504762D01*
X68857143Y-118552381D01*
X69047620Y-118552381D01*
X69142858Y-118504762D01*
X69190477Y-118457143D01*
X69238096Y-118361905D01*
X69238096Y-118123810D01*
X69190477Y-118028571D01*
X69142858Y-117980952D01*
X69047620Y-117933333D01*
X68857143Y-117933333D01*
X68761905Y-117980952D01*
X68714286Y-118028571D01*
X68666667Y-118123810D01*
X97761905Y-118504762D02*
X97904762Y-118552381D01*
X98142858Y-118552381D01*
X98238096Y-118504762D01*
X98285715Y-118457143D01*
X98333334Y-118361905D01*
X98333334Y-118266667D01*
X98285715Y-118171429D01*
X98238096Y-118123810D01*
X98142858Y-118076190D01*
X97952381Y-118028571D01*
X97857143Y-117980952D01*
X97809524Y-117933333D01*
X97761905Y-117838095D01*
X97761905Y-117742857D01*
X97809524Y-117647619D01*
X97857143Y-117600000D01*
X97952381Y-117552381D01*
X98190477Y-117552381D01*
X98333334Y-117600000D01*
X98714286Y-117647619D02*
X98761905Y-117600000D01*
X98857143Y-117552381D01*
X99095239Y-117552381D01*
X99190477Y-117600000D01*
X99238096Y-117647619D01*
X99285715Y-117742857D01*
X99285715Y-117838095D01*
X99238096Y-117980952D01*
X98666667Y-118552381D01*
X99285715Y-118552381D01*
X100190477Y-117552381D02*
X99714286Y-117552381D01*
X99666667Y-118028571D01*
X99714286Y-117980952D01*
X99809524Y-117933333D01*
X100047620Y-117933333D01*
X100142858Y-117980952D01*
X100190477Y-118028571D01*
X100238096Y-118123810D01*
X100238096Y-118361905D01*
X100190477Y-118457143D01*
X100142858Y-118504762D01*
X100047620Y-118552381D01*
X99809524Y-118552381D01*
X99714286Y-118504762D01*
X99666667Y-118457143D01*
X88761905Y-158504762D02*
X88904762Y-158552381D01*
X89142858Y-158552381D01*
X89238096Y-158504762D01*
X89285715Y-158457143D01*
X89333334Y-158361905D01*
X89333334Y-158266667D01*
X89285715Y-158171429D01*
X89238096Y-158123810D01*
X89142858Y-158076190D01*
X88952381Y-158028571D01*
X88857143Y-157980952D01*
X88809524Y-157933333D01*
X88761905Y-157838095D01*
X88761905Y-157742857D01*
X88809524Y-157647619D01*
X88857143Y-157600000D01*
X88952381Y-157552381D01*
X89190477Y-157552381D01*
X89333334Y-157600000D01*
X89714286Y-157647619D02*
X89761905Y-157600000D01*
X89857143Y-157552381D01*
X90095239Y-157552381D01*
X90190477Y-157600000D01*
X90238096Y-157647619D01*
X90285715Y-157742857D01*
X90285715Y-157838095D01*
X90238096Y-157980952D01*
X89666667Y-158552381D01*
X90285715Y-158552381D01*
X91142858Y-157885714D02*
X91142858Y-158552381D01*
X90904762Y-157504762D02*
X90666667Y-158219048D01*
X91285715Y-158219048D01*
X77761905Y-109504762D02*
X77904762Y-109552381D01*
X78142858Y-109552381D01*
X78238096Y-109504762D01*
X78285715Y-109457143D01*
X78333334Y-109361905D01*
X78333334Y-109266667D01*
X78285715Y-109171429D01*
X78238096Y-109123810D01*
X78142858Y-109076190D01*
X77952381Y-109028571D01*
X77857143Y-108980952D01*
X77809524Y-108933333D01*
X77761905Y-108838095D01*
X77761905Y-108742857D01*
X77809524Y-108647619D01*
X77857143Y-108600000D01*
X77952381Y-108552381D01*
X78190477Y-108552381D01*
X78333334Y-108600000D01*
X78714286Y-108647619D02*
X78761905Y-108600000D01*
X78857143Y-108552381D01*
X79095239Y-108552381D01*
X79190477Y-108600000D01*
X79238096Y-108647619D01*
X79285715Y-108742857D01*
X79285715Y-108838095D01*
X79238096Y-108980952D01*
X78666667Y-109552381D01*
X79285715Y-109552381D01*
X79619048Y-108552381D02*
X80238096Y-108552381D01*
X79904762Y-108933333D01*
X80047620Y-108933333D01*
X80142858Y-108980952D01*
X80190477Y-109028571D01*
X80238096Y-109123810D01*
X80238096Y-109361905D01*
X80190477Y-109457143D01*
X80142858Y-109504762D01*
X80047620Y-109552381D01*
X79761905Y-109552381D01*
X79666667Y-109504762D01*
X79619048Y-109457143D01*
X77761905Y-158504762D02*
X77904762Y-158552381D01*
X78142858Y-158552381D01*
X78238096Y-158504762D01*
X78285715Y-158457143D01*
X78333334Y-158361905D01*
X78333334Y-158266667D01*
X78285715Y-158171429D01*
X78238096Y-158123810D01*
X78142858Y-158076190D01*
X77952381Y-158028571D01*
X77857143Y-157980952D01*
X77809524Y-157933333D01*
X77761905Y-157838095D01*
X77761905Y-157742857D01*
X77809524Y-157647619D01*
X77857143Y-157600000D01*
X77952381Y-157552381D01*
X78190477Y-157552381D01*
X78333334Y-157600000D01*
X78714286Y-157647619D02*
X78761905Y-157600000D01*
X78857143Y-157552381D01*
X79095239Y-157552381D01*
X79190477Y-157600000D01*
X79238096Y-157647619D01*
X79285715Y-157742857D01*
X79285715Y-157838095D01*
X79238096Y-157980952D01*
X78666667Y-158552381D01*
X79285715Y-158552381D01*
X79666667Y-157647619D02*
X79714286Y-157600000D01*
X79809524Y-157552381D01*
X80047620Y-157552381D01*
X80142858Y-157600000D01*
X80190477Y-157647619D01*
X80238096Y-157742857D01*
X80238096Y-157838095D01*
X80190477Y-157980952D01*
X79619048Y-158552381D01*
X80238096Y-158552381D01*
X66761905Y-109504762D02*
X66904762Y-109552381D01*
X67142858Y-109552381D01*
X67238096Y-109504762D01*
X67285715Y-109457143D01*
X67333334Y-109361905D01*
X67333334Y-109266667D01*
X67285715Y-109171429D01*
X67238096Y-109123810D01*
X67142858Y-109076190D01*
X66952381Y-109028571D01*
X66857143Y-108980952D01*
X66809524Y-108933333D01*
X66761905Y-108838095D01*
X66761905Y-108742857D01*
X66809524Y-108647619D01*
X66857143Y-108600000D01*
X66952381Y-108552381D01*
X67190477Y-108552381D01*
X67333334Y-108600000D01*
X67714286Y-108647619D02*
X67761905Y-108600000D01*
X67857143Y-108552381D01*
X68095239Y-108552381D01*
X68190477Y-108600000D01*
X68238096Y-108647619D01*
X68285715Y-108742857D01*
X68285715Y-108838095D01*
X68238096Y-108980952D01*
X67666667Y-109552381D01*
X68285715Y-109552381D01*
X69238096Y-109552381D02*
X68666667Y-109552381D01*
X68952381Y-109552381D02*
X68952381Y-108552381D01*
X68857143Y-108695238D01*
X68761905Y-108790476D01*
X68666667Y-108838095D01*
X97761905Y-109504762D02*
X97904762Y-109552381D01*
X98142858Y-109552381D01*
X98238096Y-109504762D01*
X98285715Y-109457143D01*
X98333334Y-109361905D01*
X98333334Y-109266667D01*
X98285715Y-109171429D01*
X98238096Y-109123810D01*
X98142858Y-109076190D01*
X97952381Y-109028571D01*
X97857143Y-108980952D01*
X97809524Y-108933333D01*
X97761905Y-108838095D01*
X97761905Y-108742857D01*
X97809524Y-108647619D01*
X97857143Y-108600000D01*
X97952381Y-108552381D01*
X98190477Y-108552381D01*
X98333334Y-108600000D01*
X98714286Y-108647619D02*
X98761905Y-108600000D01*
X98857143Y-108552381D01*
X99095239Y-108552381D01*
X99190477Y-108600000D01*
X99238096Y-108647619D01*
X99285715Y-108742857D01*
X99285715Y-108838095D01*
X99238096Y-108980952D01*
X98666667Y-109552381D01*
X99285715Y-109552381D01*
X99904762Y-108552381D02*
X100000001Y-108552381D01*
X100095239Y-108600000D01*
X100142858Y-108647619D01*
X100190477Y-108742857D01*
X100238096Y-108933333D01*
X100238096Y-109171429D01*
X100190477Y-109361905D01*
X100142858Y-109457143D01*
X100095239Y-109504762D01*
X100000001Y-109552381D01*
X99904762Y-109552381D01*
X99809524Y-109504762D01*
X99761905Y-109457143D01*
X99714286Y-109361905D01*
X99666667Y-109171429D01*
X99666667Y-108933333D01*
X99714286Y-108742857D01*
X99761905Y-108647619D01*
X99809524Y-108600000D01*
X99904762Y-108552381D01*
X77761905Y-148504762D02*
X77904762Y-148552381D01*
X78142858Y-148552381D01*
X78238096Y-148504762D01*
X78285715Y-148457143D01*
X78333334Y-148361905D01*
X78333334Y-148266667D01*
X78285715Y-148171429D01*
X78238096Y-148123810D01*
X78142858Y-148076190D01*
X77952381Y-148028571D01*
X77857143Y-147980952D01*
X77809524Y-147933333D01*
X77761905Y-147838095D01*
X77761905Y-147742857D01*
X77809524Y-147647619D01*
X77857143Y-147600000D01*
X77952381Y-147552381D01*
X78190477Y-147552381D01*
X78333334Y-147600000D01*
X79285715Y-148552381D02*
X78714286Y-148552381D01*
X79000000Y-148552381D02*
X79000000Y-147552381D01*
X78904762Y-147695238D01*
X78809524Y-147790476D01*
X78714286Y-147838095D01*
X79761905Y-148552381D02*
X79952381Y-148552381D01*
X80047620Y-148504762D01*
X80095239Y-148457143D01*
X80190477Y-148314286D01*
X80238096Y-148123810D01*
X80238096Y-147742857D01*
X80190477Y-147647619D01*
X80142858Y-147600000D01*
X80047620Y-147552381D01*
X79857143Y-147552381D01*
X79761905Y-147600000D01*
X79714286Y-147647619D01*
X79666667Y-147742857D01*
X79666667Y-147980952D01*
X79714286Y-148076190D01*
X79761905Y-148123810D01*
X79857143Y-148171429D01*
X80047620Y-148171429D01*
X80142858Y-148123810D01*
X80190477Y-148076190D01*
X80238096Y-147980952D01*
X77761905Y-99504762D02*
X77904762Y-99552381D01*
X78142858Y-99552381D01*
X78238096Y-99504762D01*
X78285715Y-99457143D01*
X78333334Y-99361905D01*
X78333334Y-99266667D01*
X78285715Y-99171429D01*
X78238096Y-99123810D01*
X78142858Y-99076190D01*
X77952381Y-99028571D01*
X77857143Y-98980952D01*
X77809524Y-98933333D01*
X77761905Y-98838095D01*
X77761905Y-98742857D01*
X77809524Y-98647619D01*
X77857143Y-98600000D01*
X77952381Y-98552381D01*
X78190477Y-98552381D01*
X78333334Y-98600000D01*
X79285715Y-99552381D02*
X78714286Y-99552381D01*
X79000000Y-99552381D02*
X79000000Y-98552381D01*
X78904762Y-98695238D01*
X78809524Y-98790476D01*
X78714286Y-98838095D01*
X79857143Y-98980952D02*
X79761905Y-98933333D01*
X79714286Y-98885714D01*
X79666667Y-98790476D01*
X79666667Y-98742857D01*
X79714286Y-98647619D01*
X79761905Y-98600000D01*
X79857143Y-98552381D01*
X80047620Y-98552381D01*
X80142858Y-98600000D01*
X80190477Y-98647619D01*
X80238096Y-98742857D01*
X80238096Y-98790476D01*
X80190477Y-98885714D01*
X80142858Y-98933333D01*
X80047620Y-98980952D01*
X79857143Y-98980952D01*
X79761905Y-99028571D01*
X79714286Y-99076190D01*
X79666667Y-99171429D01*
X79666667Y-99361905D01*
X79714286Y-99457143D01*
X79761905Y-99504762D01*
X79857143Y-99552381D01*
X80047620Y-99552381D01*
X80142858Y-99504762D01*
X80190477Y-99457143D01*
X80238096Y-99361905D01*
X80238096Y-99171429D01*
X80190477Y-99076190D01*
X80142858Y-99028571D01*
X80047620Y-98980952D01*
X66761905Y-158504762D02*
X66904762Y-158552381D01*
X67142858Y-158552381D01*
X67238096Y-158504762D01*
X67285715Y-158457143D01*
X67333334Y-158361905D01*
X67333334Y-158266667D01*
X67285715Y-158171429D01*
X67238096Y-158123810D01*
X67142858Y-158076190D01*
X66952381Y-158028571D01*
X66857143Y-157980952D01*
X66809524Y-157933333D01*
X66761905Y-157838095D01*
X66761905Y-157742857D01*
X66809524Y-157647619D01*
X66857143Y-157600000D01*
X66952381Y-157552381D01*
X67190477Y-157552381D01*
X67333334Y-157600000D01*
X68285715Y-158552381D02*
X67714286Y-158552381D01*
X68000000Y-158552381D02*
X68000000Y-157552381D01*
X67904762Y-157695238D01*
X67809524Y-157790476D01*
X67714286Y-157838095D01*
X68619048Y-157552381D02*
X69285715Y-157552381D01*
X68857143Y-158552381D01*
X66761905Y-99504762D02*
X66904762Y-99552381D01*
X67142858Y-99552381D01*
X67238096Y-99504762D01*
X67285715Y-99457143D01*
X67333334Y-99361905D01*
X67333334Y-99266667D01*
X67285715Y-99171429D01*
X67238096Y-99123810D01*
X67142858Y-99076190D01*
X66952381Y-99028571D01*
X66857143Y-98980952D01*
X66809524Y-98933333D01*
X66761905Y-98838095D01*
X66761905Y-98742857D01*
X66809524Y-98647619D01*
X66857143Y-98600000D01*
X66952381Y-98552381D01*
X67190477Y-98552381D01*
X67333334Y-98600000D01*
X68285715Y-99552381D02*
X67714286Y-99552381D01*
X68000000Y-99552381D02*
X68000000Y-98552381D01*
X67904762Y-98695238D01*
X67809524Y-98790476D01*
X67714286Y-98838095D01*
X69142858Y-98552381D02*
X68952381Y-98552381D01*
X68857143Y-98600000D01*
X68809524Y-98647619D01*
X68714286Y-98790476D01*
X68666667Y-98980952D01*
X68666667Y-99361905D01*
X68714286Y-99457143D01*
X68761905Y-99504762D01*
X68857143Y-99552381D01*
X69047620Y-99552381D01*
X69142858Y-99504762D01*
X69190477Y-99457143D01*
X69238096Y-99361905D01*
X69238096Y-99123810D01*
X69190477Y-99028571D01*
X69142858Y-98980952D01*
X69047620Y-98933333D01*
X68857143Y-98933333D01*
X68761905Y-98980952D01*
X68714286Y-99028571D01*
X68666667Y-99123810D01*
X97761905Y-99504762D02*
X97904762Y-99552381D01*
X98142858Y-99552381D01*
X98238096Y-99504762D01*
X98285715Y-99457143D01*
X98333334Y-99361905D01*
X98333334Y-99266667D01*
X98285715Y-99171429D01*
X98238096Y-99123810D01*
X98142858Y-99076190D01*
X97952381Y-99028571D01*
X97857143Y-98980952D01*
X97809524Y-98933333D01*
X97761905Y-98838095D01*
X97761905Y-98742857D01*
X97809524Y-98647619D01*
X97857143Y-98600000D01*
X97952381Y-98552381D01*
X98190477Y-98552381D01*
X98333334Y-98600000D01*
X99285715Y-99552381D02*
X98714286Y-99552381D01*
X99000000Y-99552381D02*
X99000000Y-98552381D01*
X98904762Y-98695238D01*
X98809524Y-98790476D01*
X98714286Y-98838095D01*
X100190477Y-98552381D02*
X99714286Y-98552381D01*
X99666667Y-99028571D01*
X99714286Y-98980952D01*
X99809524Y-98933333D01*
X100047620Y-98933333D01*
X100142858Y-98980952D01*
X100190477Y-99028571D01*
X100238096Y-99123810D01*
X100238096Y-99361905D01*
X100190477Y-99457143D01*
X100142858Y-99504762D01*
X100047620Y-99552381D01*
X99809524Y-99552381D01*
X99714286Y-99504762D01*
X99666667Y-99457143D01*
X77761905Y-138504762D02*
X77904762Y-138552381D01*
X78142858Y-138552381D01*
X78238096Y-138504762D01*
X78285715Y-138457143D01*
X78333334Y-138361905D01*
X78333334Y-138266667D01*
X78285715Y-138171429D01*
X78238096Y-138123810D01*
X78142858Y-138076190D01*
X77952381Y-138028571D01*
X77857143Y-137980952D01*
X77809524Y-137933333D01*
X77761905Y-137838095D01*
X77761905Y-137742857D01*
X77809524Y-137647619D01*
X77857143Y-137600000D01*
X77952381Y-137552381D01*
X78190477Y-137552381D01*
X78333334Y-137600000D01*
X79285715Y-138552381D02*
X78714286Y-138552381D01*
X79000000Y-138552381D02*
X79000000Y-137552381D01*
X78904762Y-137695238D01*
X78809524Y-137790476D01*
X78714286Y-137838095D01*
X80142858Y-137885714D02*
X80142858Y-138552381D01*
X79904762Y-137504762D02*
X79666667Y-138219048D01*
X80285715Y-138219048D01*
X77961905Y-89604762D02*
X78104762Y-89652381D01*
X78342858Y-89652381D01*
X78438096Y-89604762D01*
X78485715Y-89557143D01*
X78533334Y-89461905D01*
X78533334Y-89366667D01*
X78485715Y-89271429D01*
X78438096Y-89223810D01*
X78342858Y-89176190D01*
X78152381Y-89128571D01*
X78057143Y-89080952D01*
X78009524Y-89033333D01*
X77961905Y-88938095D01*
X77961905Y-88842857D01*
X78009524Y-88747619D01*
X78057143Y-88700000D01*
X78152381Y-88652381D01*
X78390477Y-88652381D01*
X78533334Y-88700000D01*
X79485715Y-89652381D02*
X78914286Y-89652381D01*
X79200000Y-89652381D02*
X79200000Y-88652381D01*
X79104762Y-88795238D01*
X79009524Y-88890476D01*
X78914286Y-88938095D01*
X79819048Y-88652381D02*
X80438096Y-88652381D01*
X80104762Y-89033333D01*
X80247620Y-89033333D01*
X80342858Y-89080952D01*
X80390477Y-89128571D01*
X80438096Y-89223810D01*
X80438096Y-89461905D01*
X80390477Y-89557143D01*
X80342858Y-89604762D01*
X80247620Y-89652381D01*
X79961905Y-89652381D01*
X79866667Y-89604762D01*
X79819048Y-89557143D01*
X66761905Y-148504762D02*
X66904762Y-148552381D01*
X67142858Y-148552381D01*
X67238096Y-148504762D01*
X67285715Y-148457143D01*
X67333334Y-148361905D01*
X67333334Y-148266667D01*
X67285715Y-148171429D01*
X67238096Y-148123810D01*
X67142858Y-148076190D01*
X66952381Y-148028571D01*
X66857143Y-147980952D01*
X66809524Y-147933333D01*
X66761905Y-147838095D01*
X66761905Y-147742857D01*
X66809524Y-147647619D01*
X66857143Y-147600000D01*
X66952381Y-147552381D01*
X67190477Y-147552381D01*
X67333334Y-147600000D01*
X68285715Y-148552381D02*
X67714286Y-148552381D01*
X68000000Y-148552381D02*
X68000000Y-147552381D01*
X67904762Y-147695238D01*
X67809524Y-147790476D01*
X67714286Y-147838095D01*
X68666667Y-147647619D02*
X68714286Y-147600000D01*
X68809524Y-147552381D01*
X69047620Y-147552381D01*
X69142858Y-147600000D01*
X69190477Y-147647619D01*
X69238096Y-147742857D01*
X69238096Y-147838095D01*
X69190477Y-147980952D01*
X68619048Y-148552381D01*
X69238096Y-148552381D01*
X97761905Y-79504762D02*
X97904762Y-79552381D01*
X98142858Y-79552381D01*
X98238096Y-79504762D01*
X98285715Y-79457143D01*
X98333334Y-79361905D01*
X98333334Y-79266667D01*
X98285715Y-79171429D01*
X98238096Y-79123810D01*
X98142858Y-79076190D01*
X97952381Y-79028571D01*
X97857143Y-78980952D01*
X97809524Y-78933333D01*
X97761905Y-78838095D01*
X97761905Y-78742857D01*
X97809524Y-78647619D01*
X97857143Y-78600000D01*
X97952381Y-78552381D01*
X98190477Y-78552381D01*
X98333334Y-78600000D01*
X99285715Y-79552381D02*
X98714286Y-79552381D01*
X99000000Y-79552381D02*
X99000000Y-78552381D01*
X98904762Y-78695238D01*
X98809524Y-78790476D01*
X98714286Y-78838095D01*
X99904762Y-78552381D02*
X100000001Y-78552381D01*
X100095239Y-78600000D01*
X100142858Y-78647619D01*
X100190477Y-78742857D01*
X100238096Y-78933333D01*
X100238096Y-79171429D01*
X100190477Y-79361905D01*
X100142858Y-79457143D01*
X100095239Y-79504762D01*
X100000001Y-79552381D01*
X99904762Y-79552381D01*
X99809524Y-79504762D01*
X99761905Y-79457143D01*
X99714286Y-79361905D01*
X99666667Y-79171429D01*
X99666667Y-78933333D01*
X99714286Y-78742857D01*
X99761905Y-78647619D01*
X99809524Y-78600000D01*
X99904762Y-78552381D01*
X78238095Y-128404762D02*
X78380952Y-128452381D01*
X78619048Y-128452381D01*
X78714286Y-128404762D01*
X78761905Y-128357143D01*
X78809524Y-128261905D01*
X78809524Y-128166667D01*
X78761905Y-128071429D01*
X78714286Y-128023810D01*
X78619048Y-127976190D01*
X78428571Y-127928571D01*
X78333333Y-127880952D01*
X78285714Y-127833333D01*
X78238095Y-127738095D01*
X78238095Y-127642857D01*
X78285714Y-127547619D01*
X78333333Y-127500000D01*
X78428571Y-127452381D01*
X78666667Y-127452381D01*
X78809524Y-127500000D01*
X79285714Y-128452381D02*
X79476190Y-128452381D01*
X79571429Y-128404762D01*
X79619048Y-128357143D01*
X79714286Y-128214286D01*
X79761905Y-128023810D01*
X79761905Y-127642857D01*
X79714286Y-127547619D01*
X79666667Y-127500000D01*
X79571429Y-127452381D01*
X79380952Y-127452381D01*
X79285714Y-127500000D01*
X79238095Y-127547619D01*
X79190476Y-127642857D01*
X79190476Y-127880952D01*
X79238095Y-127976190D01*
X79285714Y-128023810D01*
X79380952Y-128071429D01*
X79571429Y-128071429D01*
X79666667Y-128023810D01*
X79714286Y-127976190D01*
X79761905Y-127880952D01*
X78238095Y-79504762D02*
X78380952Y-79552381D01*
X78619048Y-79552381D01*
X78714286Y-79504762D01*
X78761905Y-79457143D01*
X78809524Y-79361905D01*
X78809524Y-79266667D01*
X78761905Y-79171429D01*
X78714286Y-79123810D01*
X78619048Y-79076190D01*
X78428571Y-79028571D01*
X78333333Y-78980952D01*
X78285714Y-78933333D01*
X78238095Y-78838095D01*
X78238095Y-78742857D01*
X78285714Y-78647619D01*
X78333333Y-78600000D01*
X78428571Y-78552381D01*
X78666667Y-78552381D01*
X78809524Y-78600000D01*
X79380952Y-78980952D02*
X79285714Y-78933333D01*
X79238095Y-78885714D01*
X79190476Y-78790476D01*
X79190476Y-78742857D01*
X79238095Y-78647619D01*
X79285714Y-78600000D01*
X79380952Y-78552381D01*
X79571429Y-78552381D01*
X79666667Y-78600000D01*
X79714286Y-78647619D01*
X79761905Y-78742857D01*
X79761905Y-78790476D01*
X79714286Y-78885714D01*
X79666667Y-78933333D01*
X79571429Y-78980952D01*
X79380952Y-78980952D01*
X79285714Y-79028571D01*
X79238095Y-79076190D01*
X79190476Y-79171429D01*
X79190476Y-79361905D01*
X79238095Y-79457143D01*
X79285714Y-79504762D01*
X79380952Y-79552381D01*
X79571429Y-79552381D01*
X79666667Y-79504762D01*
X79714286Y-79457143D01*
X79761905Y-79361905D01*
X79761905Y-79171429D01*
X79714286Y-79076190D01*
X79666667Y-79028571D01*
X79571429Y-78980952D01*
X67238095Y-138504762D02*
X67380952Y-138552381D01*
X67619048Y-138552381D01*
X67714286Y-138504762D01*
X67761905Y-138457143D01*
X67809524Y-138361905D01*
X67809524Y-138266667D01*
X67761905Y-138171429D01*
X67714286Y-138123810D01*
X67619048Y-138076190D01*
X67428571Y-138028571D01*
X67333333Y-137980952D01*
X67285714Y-137933333D01*
X67238095Y-137838095D01*
X67238095Y-137742857D01*
X67285714Y-137647619D01*
X67333333Y-137600000D01*
X67428571Y-137552381D01*
X67666667Y-137552381D01*
X67809524Y-137600000D01*
X68142857Y-137552381D02*
X68809524Y-137552381D01*
X68380952Y-138552381D01*
X67038095Y-79404762D02*
X67180952Y-79452381D01*
X67419048Y-79452381D01*
X67514286Y-79404762D01*
X67561905Y-79357143D01*
X67609524Y-79261905D01*
X67609524Y-79166667D01*
X67561905Y-79071429D01*
X67514286Y-79023810D01*
X67419048Y-78976190D01*
X67228571Y-78928571D01*
X67133333Y-78880952D01*
X67085714Y-78833333D01*
X67038095Y-78738095D01*
X67038095Y-78642857D01*
X67085714Y-78547619D01*
X67133333Y-78500000D01*
X67228571Y-78452381D01*
X67466667Y-78452381D01*
X67609524Y-78500000D01*
X68466667Y-78452381D02*
X68276190Y-78452381D01*
X68180952Y-78500000D01*
X68133333Y-78547619D01*
X68038095Y-78690476D01*
X67990476Y-78880952D01*
X67990476Y-79261905D01*
X68038095Y-79357143D01*
X68085714Y-79404762D01*
X68180952Y-79452381D01*
X68371429Y-79452381D01*
X68466667Y-79404762D01*
X68514286Y-79357143D01*
X68561905Y-79261905D01*
X68561905Y-79023810D01*
X68514286Y-78928571D01*
X68466667Y-78880952D01*
X68371429Y-78833333D01*
X68180952Y-78833333D01*
X68085714Y-78880952D01*
X68038095Y-78928571D01*
X67990476Y-79023810D01*
X78238095Y-118504762D02*
X78380952Y-118552381D01*
X78619048Y-118552381D01*
X78714286Y-118504762D01*
X78761905Y-118457143D01*
X78809524Y-118361905D01*
X78809524Y-118266667D01*
X78761905Y-118171429D01*
X78714286Y-118123810D01*
X78619048Y-118076190D01*
X78428571Y-118028571D01*
X78333333Y-117980952D01*
X78285714Y-117933333D01*
X78238095Y-117838095D01*
X78238095Y-117742857D01*
X78285714Y-117647619D01*
X78333333Y-117600000D01*
X78428571Y-117552381D01*
X78666667Y-117552381D01*
X78809524Y-117600000D01*
X79666667Y-117885714D02*
X79666667Y-118552381D01*
X79428571Y-117504762D02*
X79190476Y-118219048D01*
X79809524Y-118219048D01*
X78238095Y-69504762D02*
X78380952Y-69552381D01*
X78619048Y-69552381D01*
X78714286Y-69504762D01*
X78761905Y-69457143D01*
X78809524Y-69361905D01*
X78809524Y-69266667D01*
X78761905Y-69171429D01*
X78714286Y-69123810D01*
X78619048Y-69076190D01*
X78428571Y-69028571D01*
X78333333Y-68980952D01*
X78285714Y-68933333D01*
X78238095Y-68838095D01*
X78238095Y-68742857D01*
X78285714Y-68647619D01*
X78333333Y-68600000D01*
X78428571Y-68552381D01*
X78666667Y-68552381D01*
X78809524Y-68600000D01*
X79142857Y-68552381D02*
X79761905Y-68552381D01*
X79428571Y-68933333D01*
X79571429Y-68933333D01*
X79666667Y-68980952D01*
X79714286Y-69028571D01*
X79761905Y-69123810D01*
X79761905Y-69361905D01*
X79714286Y-69457143D01*
X79666667Y-69504762D01*
X79571429Y-69552381D01*
X79285714Y-69552381D01*
X79190476Y-69504762D01*
X79142857Y-69457143D01*
X67238095Y-128504762D02*
X67380952Y-128552381D01*
X67619048Y-128552381D01*
X67714286Y-128504762D01*
X67761905Y-128457143D01*
X67809524Y-128361905D01*
X67809524Y-128266667D01*
X67761905Y-128171429D01*
X67714286Y-128123810D01*
X67619048Y-128076190D01*
X67428571Y-128028571D01*
X67333333Y-127980952D01*
X67285714Y-127933333D01*
X67238095Y-127838095D01*
X67238095Y-127742857D01*
X67285714Y-127647619D01*
X67333333Y-127600000D01*
X67428571Y-127552381D01*
X67666667Y-127552381D01*
X67809524Y-127600000D01*
X68190476Y-127647619D02*
X68238095Y-127600000D01*
X68333333Y-127552381D01*
X68571429Y-127552381D01*
X68666667Y-127600000D01*
X68714286Y-127647619D01*
X68761905Y-127742857D01*
X68761905Y-127838095D01*
X68714286Y-127980952D01*
X68142857Y-128552381D01*
X68761905Y-128552381D01*
X67238095Y-69504762D02*
X67380952Y-69552381D01*
X67619048Y-69552381D01*
X67714286Y-69504762D01*
X67761905Y-69457143D01*
X67809524Y-69361905D01*
X67809524Y-69266667D01*
X67761905Y-69171429D01*
X67714286Y-69123810D01*
X67619048Y-69076190D01*
X67428571Y-69028571D01*
X67333333Y-68980952D01*
X67285714Y-68933333D01*
X67238095Y-68838095D01*
X67238095Y-68742857D01*
X67285714Y-68647619D01*
X67333333Y-68600000D01*
X67428571Y-68552381D01*
X67666667Y-68552381D01*
X67809524Y-68600000D01*
X68761905Y-69552381D02*
X68190476Y-69552381D01*
X68476190Y-69552381D02*
X68476190Y-68552381D01*
X68380952Y-68695238D01*
X68285714Y-68790476D01*
X68190476Y-68838095D01*
X72102381Y-113642857D02*
X71626190Y-113976191D01*
X72102381Y-114214286D02*
X71102381Y-114214286D01*
X71102381Y-113833333D01*
X71150000Y-113738095D01*
X71197619Y-113690476D01*
X71292857Y-113642857D01*
X71435714Y-113642857D01*
X71530952Y-113690476D01*
X71578571Y-113738095D01*
X71626190Y-113833333D01*
X71626190Y-114214286D01*
X71435714Y-112785714D02*
X72102381Y-112785714D01*
X71054762Y-113023810D02*
X71769048Y-113261905D01*
X71769048Y-112642857D01*
X71197619Y-112309524D02*
X71150000Y-112261905D01*
X71102381Y-112166667D01*
X71102381Y-111928571D01*
X71150000Y-111833333D01*
X71197619Y-111785714D01*
X71292857Y-111738095D01*
X71388095Y-111738095D01*
X71530952Y-111785714D01*
X72102381Y-112357143D01*
X72102381Y-111738095D01*
X98357143Y-121802381D02*
X98023809Y-121326190D01*
X97785714Y-121802381D02*
X97785714Y-120802381D01*
X98166667Y-120802381D01*
X98261905Y-120850000D01*
X98309524Y-120897619D01*
X98357143Y-120992857D01*
X98357143Y-121135714D01*
X98309524Y-121230952D01*
X98261905Y-121278571D01*
X98166667Y-121326190D01*
X97785714Y-121326190D01*
X99214286Y-121135714D02*
X99214286Y-121802381D01*
X98976190Y-120754762D02*
X98738095Y-121469048D01*
X99357143Y-121469048D01*
X100261905Y-121802381D02*
X99690476Y-121802381D01*
X99976190Y-121802381D02*
X99976190Y-120802381D01*
X99880952Y-120945238D01*
X99785714Y-121040476D01*
X99690476Y-121088095D01*
X89357143Y-152802381D02*
X89023809Y-152326190D01*
X88785714Y-152802381D02*
X88785714Y-151802381D01*
X89166667Y-151802381D01*
X89261905Y-151850000D01*
X89309524Y-151897619D01*
X89357143Y-151992857D01*
X89357143Y-152135714D01*
X89309524Y-152230952D01*
X89261905Y-152278571D01*
X89166667Y-152326190D01*
X88785714Y-152326190D01*
X90214286Y-152135714D02*
X90214286Y-152802381D01*
X89976190Y-151754762D02*
X89738095Y-152469048D01*
X90357143Y-152469048D01*
X90928571Y-151802381D02*
X91023810Y-151802381D01*
X91119048Y-151850000D01*
X91166667Y-151897619D01*
X91214286Y-151992857D01*
X91261905Y-152183333D01*
X91261905Y-152421429D01*
X91214286Y-152611905D01*
X91166667Y-152707143D01*
X91119048Y-152754762D01*
X91023810Y-152802381D01*
X90928571Y-152802381D01*
X90833333Y-152754762D01*
X90785714Y-152707143D01*
X90738095Y-152611905D01*
X90690476Y-152421429D01*
X90690476Y-152183333D01*
X90738095Y-151992857D01*
X90785714Y-151897619D01*
X90833333Y-151850000D01*
X90928571Y-151802381D01*
X85857143Y-104602381D02*
X85523809Y-104126190D01*
X85285714Y-104602381D02*
X85285714Y-103602381D01*
X85666667Y-103602381D01*
X85761905Y-103650000D01*
X85809524Y-103697619D01*
X85857143Y-103792857D01*
X85857143Y-103935714D01*
X85809524Y-104030952D01*
X85761905Y-104078571D01*
X85666667Y-104126190D01*
X85285714Y-104126190D01*
X86190476Y-103602381D02*
X86809524Y-103602381D01*
X86476190Y-103983333D01*
X86619048Y-103983333D01*
X86714286Y-104030952D01*
X86761905Y-104078571D01*
X86809524Y-104173810D01*
X86809524Y-104411905D01*
X86761905Y-104507143D01*
X86714286Y-104554762D01*
X86619048Y-104602381D01*
X86333333Y-104602381D01*
X86238095Y-104554762D01*
X86190476Y-104507143D01*
X87285714Y-104602381D02*
X87476190Y-104602381D01*
X87571429Y-104554762D01*
X87619048Y-104507143D01*
X87714286Y-104364286D01*
X87761905Y-104173810D01*
X87761905Y-103792857D01*
X87714286Y-103697619D01*
X87666667Y-103650000D01*
X87571429Y-103602381D01*
X87380952Y-103602381D01*
X87285714Y-103650000D01*
X87238095Y-103697619D01*
X87190476Y-103792857D01*
X87190476Y-104030952D01*
X87238095Y-104126190D01*
X87285714Y-104173810D01*
X87380952Y-104221429D01*
X87571429Y-104221429D01*
X87666667Y-104173810D01*
X87714286Y-104126190D01*
X87761905Y-104030952D01*
X78357143Y-152802381D02*
X78023809Y-152326190D01*
X77785714Y-152802381D02*
X77785714Y-151802381D01*
X78166667Y-151802381D01*
X78261905Y-151850000D01*
X78309524Y-151897619D01*
X78357143Y-151992857D01*
X78357143Y-152135714D01*
X78309524Y-152230952D01*
X78261905Y-152278571D01*
X78166667Y-152326190D01*
X77785714Y-152326190D01*
X78690476Y-151802381D02*
X79309524Y-151802381D01*
X78976190Y-152183333D01*
X79119048Y-152183333D01*
X79214286Y-152230952D01*
X79261905Y-152278571D01*
X79309524Y-152373810D01*
X79309524Y-152611905D01*
X79261905Y-152707143D01*
X79214286Y-152754762D01*
X79119048Y-152802381D01*
X78833333Y-152802381D01*
X78738095Y-152754762D01*
X78690476Y-152707143D01*
X79880952Y-152230952D02*
X79785714Y-152183333D01*
X79738095Y-152135714D01*
X79690476Y-152040476D01*
X79690476Y-151992857D01*
X79738095Y-151897619D01*
X79785714Y-151850000D01*
X79880952Y-151802381D01*
X80071429Y-151802381D01*
X80166667Y-151850000D01*
X80214286Y-151897619D01*
X80261905Y-151992857D01*
X80261905Y-152040476D01*
X80214286Y-152135714D01*
X80166667Y-152183333D01*
X80071429Y-152230952D01*
X79880952Y-152230952D01*
X79785714Y-152278571D01*
X79738095Y-152326190D01*
X79690476Y-152421429D01*
X79690476Y-152611905D01*
X79738095Y-152707143D01*
X79785714Y-152754762D01*
X79880952Y-152802381D01*
X80071429Y-152802381D01*
X80166667Y-152754762D01*
X80214286Y-152707143D01*
X80261905Y-152611905D01*
X80261905Y-152421429D01*
X80214286Y-152326190D01*
X80166667Y-152278571D01*
X80071429Y-152230952D01*
X72102381Y-104642857D02*
X71626190Y-104976191D01*
X72102381Y-105214286D02*
X71102381Y-105214286D01*
X71102381Y-104833333D01*
X71150000Y-104738095D01*
X71197619Y-104690476D01*
X71292857Y-104642857D01*
X71435714Y-104642857D01*
X71530952Y-104690476D01*
X71578571Y-104738095D01*
X71626190Y-104833333D01*
X71626190Y-105214286D01*
X71102381Y-104309524D02*
X71102381Y-103690476D01*
X71483333Y-104023810D01*
X71483333Y-103880952D01*
X71530952Y-103785714D01*
X71578571Y-103738095D01*
X71673810Y-103690476D01*
X71911905Y-103690476D01*
X72007143Y-103738095D01*
X72054762Y-103785714D01*
X72102381Y-103880952D01*
X72102381Y-104166667D01*
X72054762Y-104261905D01*
X72007143Y-104309524D01*
X71102381Y-103357143D02*
X71102381Y-102690476D01*
X72102381Y-103119048D01*
X85857143Y-143602381D02*
X85523809Y-143126190D01*
X85285714Y-143602381D02*
X85285714Y-142602381D01*
X85666667Y-142602381D01*
X85761905Y-142650000D01*
X85809524Y-142697619D01*
X85857143Y-142792857D01*
X85857143Y-142935714D01*
X85809524Y-143030952D01*
X85761905Y-143078571D01*
X85666667Y-143126190D01*
X85285714Y-143126190D01*
X86190476Y-142602381D02*
X86809524Y-142602381D01*
X86476190Y-142983333D01*
X86619048Y-142983333D01*
X86714286Y-143030952D01*
X86761905Y-143078571D01*
X86809524Y-143173810D01*
X86809524Y-143411905D01*
X86761905Y-143507143D01*
X86714286Y-143554762D01*
X86619048Y-143602381D01*
X86333333Y-143602381D01*
X86238095Y-143554762D01*
X86190476Y-143507143D01*
X87666667Y-142602381D02*
X87476190Y-142602381D01*
X87380952Y-142650000D01*
X87333333Y-142697619D01*
X87238095Y-142840476D01*
X87190476Y-143030952D01*
X87190476Y-143411905D01*
X87238095Y-143507143D01*
X87285714Y-143554762D01*
X87380952Y-143602381D01*
X87571429Y-143602381D01*
X87666667Y-143554762D01*
X87714286Y-143507143D01*
X87761905Y-143411905D01*
X87761905Y-143173810D01*
X87714286Y-143078571D01*
X87666667Y-143030952D01*
X87571429Y-142983333D01*
X87380952Y-142983333D01*
X87285714Y-143030952D01*
X87238095Y-143078571D01*
X87190476Y-143173810D01*
X86357143Y-94602381D02*
X86023809Y-94126190D01*
X85785714Y-94602381D02*
X85785714Y-93602381D01*
X86166667Y-93602381D01*
X86261905Y-93650000D01*
X86309524Y-93697619D01*
X86357143Y-93792857D01*
X86357143Y-93935714D01*
X86309524Y-94030952D01*
X86261905Y-94078571D01*
X86166667Y-94126190D01*
X85785714Y-94126190D01*
X86690476Y-93602381D02*
X87309524Y-93602381D01*
X86976190Y-93983333D01*
X87119048Y-93983333D01*
X87214286Y-94030952D01*
X87261905Y-94078571D01*
X87309524Y-94173810D01*
X87309524Y-94411905D01*
X87261905Y-94507143D01*
X87214286Y-94554762D01*
X87119048Y-94602381D01*
X86833333Y-94602381D01*
X86738095Y-94554762D01*
X86690476Y-94507143D01*
X88214286Y-93602381D02*
X87738095Y-93602381D01*
X87690476Y-94078571D01*
X87738095Y-94030952D01*
X87833333Y-93983333D01*
X88071429Y-93983333D01*
X88166667Y-94030952D01*
X88214286Y-94078571D01*
X88261905Y-94173810D01*
X88261905Y-94411905D01*
X88214286Y-94507143D01*
X88166667Y-94554762D01*
X88071429Y-94602381D01*
X87833333Y-94602381D01*
X87738095Y-94554762D01*
X87690476Y-94507143D01*
X72102381Y-153642857D02*
X71626190Y-153976191D01*
X72102381Y-154214286D02*
X71102381Y-154214286D01*
X71102381Y-153833333D01*
X71150000Y-153738095D01*
X71197619Y-153690476D01*
X71292857Y-153642857D01*
X71435714Y-153642857D01*
X71530952Y-153690476D01*
X71578571Y-153738095D01*
X71626190Y-153833333D01*
X71626190Y-154214286D01*
X71102381Y-153309524D02*
X71102381Y-152690476D01*
X71483333Y-153023810D01*
X71483333Y-152880952D01*
X71530952Y-152785714D01*
X71578571Y-152738095D01*
X71673810Y-152690476D01*
X71911905Y-152690476D01*
X72007143Y-152738095D01*
X72054762Y-152785714D01*
X72102381Y-152880952D01*
X72102381Y-153166667D01*
X72054762Y-153261905D01*
X72007143Y-153309524D01*
X71435714Y-151833333D02*
X72102381Y-151833333D01*
X71054762Y-152071429D02*
X71769048Y-152309524D01*
X71769048Y-151690476D01*
X72202381Y-93492857D02*
X71726190Y-93826191D01*
X72202381Y-94064286D02*
X71202381Y-94064286D01*
X71202381Y-93683333D01*
X71250000Y-93588095D01*
X71297619Y-93540476D01*
X71392857Y-93492857D01*
X71535714Y-93492857D01*
X71630952Y-93540476D01*
X71678571Y-93588095D01*
X71726190Y-93683333D01*
X71726190Y-94064286D01*
X71202381Y-93159524D02*
X71202381Y-92540476D01*
X71583333Y-92873810D01*
X71583333Y-92730952D01*
X71630952Y-92635714D01*
X71678571Y-92588095D01*
X71773810Y-92540476D01*
X72011905Y-92540476D01*
X72107143Y-92588095D01*
X72154762Y-92635714D01*
X72202381Y-92730952D01*
X72202381Y-93016667D01*
X72154762Y-93111905D01*
X72107143Y-93159524D01*
X71202381Y-92207143D02*
X71202381Y-91588095D01*
X71583333Y-91921429D01*
X71583333Y-91778571D01*
X71630952Y-91683333D01*
X71678571Y-91635714D01*
X71773810Y-91588095D01*
X72011905Y-91588095D01*
X72107143Y-91635714D01*
X72154762Y-91683333D01*
X72202381Y-91778571D01*
X72202381Y-92064286D01*
X72154762Y-92159524D01*
X72107143Y-92207143D01*
X98357143Y-112802381D02*
X98023809Y-112326190D01*
X97785714Y-112802381D02*
X97785714Y-111802381D01*
X98166667Y-111802381D01*
X98261905Y-111850000D01*
X98309524Y-111897619D01*
X98357143Y-111992857D01*
X98357143Y-112135714D01*
X98309524Y-112230952D01*
X98261905Y-112278571D01*
X98166667Y-112326190D01*
X97785714Y-112326190D01*
X98690476Y-111802381D02*
X99309524Y-111802381D01*
X98976190Y-112183333D01*
X99119048Y-112183333D01*
X99214286Y-112230952D01*
X99261905Y-112278571D01*
X99309524Y-112373810D01*
X99309524Y-112611905D01*
X99261905Y-112707143D01*
X99214286Y-112754762D01*
X99119048Y-112802381D01*
X98833333Y-112802381D01*
X98738095Y-112754762D01*
X98690476Y-112707143D01*
X99690476Y-111897619D02*
X99738095Y-111850000D01*
X99833333Y-111802381D01*
X100071429Y-111802381D01*
X100166667Y-111850000D01*
X100214286Y-111897619D01*
X100261905Y-111992857D01*
X100261905Y-112088095D01*
X100214286Y-112230952D01*
X99642857Y-112802381D01*
X100261905Y-112802381D01*
X98357143Y-103302381D02*
X98023809Y-102826190D01*
X97785714Y-103302381D02*
X97785714Y-102302381D01*
X98166667Y-102302381D01*
X98261905Y-102350000D01*
X98309524Y-102397619D01*
X98357143Y-102492857D01*
X98357143Y-102635714D01*
X98309524Y-102730952D01*
X98261905Y-102778571D01*
X98166667Y-102826190D01*
X97785714Y-102826190D01*
X98690476Y-102302381D02*
X99309524Y-102302381D01*
X98976190Y-102683333D01*
X99119048Y-102683333D01*
X99214286Y-102730952D01*
X99261905Y-102778571D01*
X99309524Y-102873810D01*
X99309524Y-103111905D01*
X99261905Y-103207143D01*
X99214286Y-103254762D01*
X99119048Y-103302381D01*
X98833333Y-103302381D01*
X98738095Y-103254762D01*
X98690476Y-103207143D01*
X100261905Y-103302381D02*
X99690476Y-103302381D01*
X99976190Y-103302381D02*
X99976190Y-102302381D01*
X99880952Y-102445238D01*
X99785714Y-102540476D01*
X99690476Y-102588095D01*
X85857143Y-133602381D02*
X85523809Y-133126190D01*
X85285714Y-133602381D02*
X85285714Y-132602381D01*
X85666667Y-132602381D01*
X85761905Y-132650000D01*
X85809524Y-132697619D01*
X85857143Y-132792857D01*
X85857143Y-132935714D01*
X85809524Y-133030952D01*
X85761905Y-133078571D01*
X85666667Y-133126190D01*
X85285714Y-133126190D01*
X86190476Y-132602381D02*
X86809524Y-132602381D01*
X86476190Y-132983333D01*
X86619048Y-132983333D01*
X86714286Y-133030952D01*
X86761905Y-133078571D01*
X86809524Y-133173810D01*
X86809524Y-133411905D01*
X86761905Y-133507143D01*
X86714286Y-133554762D01*
X86619048Y-133602381D01*
X86333333Y-133602381D01*
X86238095Y-133554762D01*
X86190476Y-133507143D01*
X87428571Y-132602381D02*
X87523810Y-132602381D01*
X87619048Y-132650000D01*
X87666667Y-132697619D01*
X87714286Y-132792857D01*
X87761905Y-132983333D01*
X87761905Y-133221429D01*
X87714286Y-133411905D01*
X87666667Y-133507143D01*
X87619048Y-133554762D01*
X87523810Y-133602381D01*
X87428571Y-133602381D01*
X87333333Y-133554762D01*
X87285714Y-133507143D01*
X87238095Y-133411905D01*
X87190476Y-133221429D01*
X87190476Y-132983333D01*
X87238095Y-132792857D01*
X87285714Y-132697619D01*
X87333333Y-132650000D01*
X87428571Y-132602381D01*
X86357143Y-84602381D02*
X86023809Y-84126190D01*
X85785714Y-84602381D02*
X85785714Y-83602381D01*
X86166667Y-83602381D01*
X86261905Y-83650000D01*
X86309524Y-83697619D01*
X86357143Y-83792857D01*
X86357143Y-83935714D01*
X86309524Y-84030952D01*
X86261905Y-84078571D01*
X86166667Y-84126190D01*
X85785714Y-84126190D01*
X86738095Y-83697619D02*
X86785714Y-83650000D01*
X86880952Y-83602381D01*
X87119048Y-83602381D01*
X87214286Y-83650000D01*
X87261905Y-83697619D01*
X87309524Y-83792857D01*
X87309524Y-83888095D01*
X87261905Y-84030952D01*
X86690476Y-84602381D01*
X87309524Y-84602381D01*
X87785714Y-84602381D02*
X87976190Y-84602381D01*
X88071429Y-84554762D01*
X88119048Y-84507143D01*
X88214286Y-84364286D01*
X88261905Y-84173810D01*
X88261905Y-83792857D01*
X88214286Y-83697619D01*
X88166667Y-83650000D01*
X88071429Y-83602381D01*
X87880952Y-83602381D01*
X87785714Y-83650000D01*
X87738095Y-83697619D01*
X87690476Y-83792857D01*
X87690476Y-84030952D01*
X87738095Y-84126190D01*
X87785714Y-84173810D01*
X87880952Y-84221429D01*
X88071429Y-84221429D01*
X88166667Y-84173810D01*
X88214286Y-84126190D01*
X88261905Y-84030952D01*
X72102381Y-143642857D02*
X71626190Y-143976191D01*
X72102381Y-144214286D02*
X71102381Y-144214286D01*
X71102381Y-143833333D01*
X71150000Y-143738095D01*
X71197619Y-143690476D01*
X71292857Y-143642857D01*
X71435714Y-143642857D01*
X71530952Y-143690476D01*
X71578571Y-143738095D01*
X71626190Y-143833333D01*
X71626190Y-144214286D01*
X71197619Y-143261905D02*
X71150000Y-143214286D01*
X71102381Y-143119048D01*
X71102381Y-142880952D01*
X71150000Y-142785714D01*
X71197619Y-142738095D01*
X71292857Y-142690476D01*
X71388095Y-142690476D01*
X71530952Y-142738095D01*
X72102381Y-143309524D01*
X72102381Y-142690476D01*
X71530952Y-142119048D02*
X71483333Y-142214286D01*
X71435714Y-142261905D01*
X71340476Y-142309524D01*
X71292857Y-142309524D01*
X71197619Y-142261905D01*
X71150000Y-142214286D01*
X71102381Y-142119048D01*
X71102381Y-141928571D01*
X71150000Y-141833333D01*
X71197619Y-141785714D01*
X71292857Y-141738095D01*
X71340476Y-141738095D01*
X71435714Y-141785714D01*
X71483333Y-141833333D01*
X71530952Y-141928571D01*
X71530952Y-142119048D01*
X71578571Y-142214286D01*
X71626190Y-142261905D01*
X71721429Y-142309524D01*
X71911905Y-142309524D01*
X72007143Y-142261905D01*
X72054762Y-142214286D01*
X72102381Y-142119048D01*
X72102381Y-141928571D01*
X72054762Y-141833333D01*
X72007143Y-141785714D01*
X71911905Y-141738095D01*
X71721429Y-141738095D01*
X71626190Y-141785714D01*
X71578571Y-141833333D01*
X71530952Y-141928571D01*
X72102381Y-84642857D02*
X71626190Y-84976191D01*
X72102381Y-85214286D02*
X71102381Y-85214286D01*
X71102381Y-84833333D01*
X71150000Y-84738095D01*
X71197619Y-84690476D01*
X71292857Y-84642857D01*
X71435714Y-84642857D01*
X71530952Y-84690476D01*
X71578571Y-84738095D01*
X71626190Y-84833333D01*
X71626190Y-85214286D01*
X71197619Y-84261905D02*
X71150000Y-84214286D01*
X71102381Y-84119048D01*
X71102381Y-83880952D01*
X71150000Y-83785714D01*
X71197619Y-83738095D01*
X71292857Y-83690476D01*
X71388095Y-83690476D01*
X71530952Y-83738095D01*
X72102381Y-84309524D01*
X72102381Y-83690476D01*
X71102381Y-83357143D02*
X71102381Y-82690476D01*
X72102381Y-83119048D01*
X98357143Y-83302381D02*
X98023809Y-82826190D01*
X97785714Y-83302381D02*
X97785714Y-82302381D01*
X98166667Y-82302381D01*
X98261905Y-82350000D01*
X98309524Y-82397619D01*
X98357143Y-82492857D01*
X98357143Y-82635714D01*
X98309524Y-82730952D01*
X98261905Y-82778571D01*
X98166667Y-82826190D01*
X97785714Y-82826190D01*
X98738095Y-82397619D02*
X98785714Y-82350000D01*
X98880952Y-82302381D01*
X99119048Y-82302381D01*
X99214286Y-82350000D01*
X99261905Y-82397619D01*
X99309524Y-82492857D01*
X99309524Y-82588095D01*
X99261905Y-82730952D01*
X98690476Y-83302381D01*
X99309524Y-83302381D01*
X100166667Y-82302381D02*
X99976190Y-82302381D01*
X99880952Y-82350000D01*
X99833333Y-82397619D01*
X99738095Y-82540476D01*
X99690476Y-82730952D01*
X99690476Y-83111905D01*
X99738095Y-83207143D01*
X99785714Y-83254762D01*
X99880952Y-83302381D01*
X100071429Y-83302381D01*
X100166667Y-83254762D01*
X100214286Y-83207143D01*
X100261905Y-83111905D01*
X100261905Y-82873810D01*
X100214286Y-82778571D01*
X100166667Y-82730952D01*
X100071429Y-82683333D01*
X99880952Y-82683333D01*
X99785714Y-82730952D01*
X99738095Y-82778571D01*
X99690476Y-82873810D01*
X85857143Y-123602381D02*
X85523809Y-123126190D01*
X85285714Y-123602381D02*
X85285714Y-122602381D01*
X85666667Y-122602381D01*
X85761905Y-122650000D01*
X85809524Y-122697619D01*
X85857143Y-122792857D01*
X85857143Y-122935714D01*
X85809524Y-123030952D01*
X85761905Y-123078571D01*
X85666667Y-123126190D01*
X85285714Y-123126190D01*
X86238095Y-122697619D02*
X86285714Y-122650000D01*
X86380952Y-122602381D01*
X86619048Y-122602381D01*
X86714286Y-122650000D01*
X86761905Y-122697619D01*
X86809524Y-122792857D01*
X86809524Y-122888095D01*
X86761905Y-123030952D01*
X86190476Y-123602381D01*
X86809524Y-123602381D01*
X87714286Y-122602381D02*
X87238095Y-122602381D01*
X87190476Y-123078571D01*
X87238095Y-123030952D01*
X87333333Y-122983333D01*
X87571429Y-122983333D01*
X87666667Y-123030952D01*
X87714286Y-123078571D01*
X87761905Y-123173810D01*
X87761905Y-123411905D01*
X87714286Y-123507143D01*
X87666667Y-123554762D01*
X87571429Y-123602381D01*
X87333333Y-123602381D01*
X87238095Y-123554762D01*
X87190476Y-123507143D01*
X85857143Y-74602381D02*
X85523809Y-74126190D01*
X85285714Y-74602381D02*
X85285714Y-73602381D01*
X85666667Y-73602381D01*
X85761905Y-73650000D01*
X85809524Y-73697619D01*
X85857143Y-73792857D01*
X85857143Y-73935714D01*
X85809524Y-74030952D01*
X85761905Y-74078571D01*
X85666667Y-74126190D01*
X85285714Y-74126190D01*
X86238095Y-73697619D02*
X86285714Y-73650000D01*
X86380952Y-73602381D01*
X86619048Y-73602381D01*
X86714286Y-73650000D01*
X86761905Y-73697619D01*
X86809524Y-73792857D01*
X86809524Y-73888095D01*
X86761905Y-74030952D01*
X86190476Y-74602381D01*
X86809524Y-74602381D01*
X87666667Y-73935714D02*
X87666667Y-74602381D01*
X87428571Y-73554762D02*
X87190476Y-74269048D01*
X87809524Y-74269048D01*
X72102381Y-133642857D02*
X71626190Y-133976191D01*
X72102381Y-134214286D02*
X71102381Y-134214286D01*
X71102381Y-133833333D01*
X71150000Y-133738095D01*
X71197619Y-133690476D01*
X71292857Y-133642857D01*
X71435714Y-133642857D01*
X71530952Y-133690476D01*
X71578571Y-133738095D01*
X71626190Y-133833333D01*
X71626190Y-134214286D01*
X71197619Y-133261905D02*
X71150000Y-133214286D01*
X71102381Y-133119048D01*
X71102381Y-132880952D01*
X71150000Y-132785714D01*
X71197619Y-132738095D01*
X71292857Y-132690476D01*
X71388095Y-132690476D01*
X71530952Y-132738095D01*
X72102381Y-133309524D01*
X72102381Y-132690476D01*
X71102381Y-132357143D02*
X71102381Y-131738095D01*
X71483333Y-132071429D01*
X71483333Y-131928571D01*
X71530952Y-131833333D01*
X71578571Y-131785714D01*
X71673810Y-131738095D01*
X71911905Y-131738095D01*
X72007143Y-131785714D01*
X72054762Y-131833333D01*
X72102381Y-131928571D01*
X72102381Y-132214286D01*
X72054762Y-132309524D01*
X72007143Y-132357143D01*
X72102381Y-74642857D02*
X71626190Y-74976191D01*
X72102381Y-75214286D02*
X71102381Y-75214286D01*
X71102381Y-74833333D01*
X71150000Y-74738095D01*
X71197619Y-74690476D01*
X71292857Y-74642857D01*
X71435714Y-74642857D01*
X71530952Y-74690476D01*
X71578571Y-74738095D01*
X71626190Y-74833333D01*
X71626190Y-75214286D01*
X71197619Y-74261905D02*
X71150000Y-74214286D01*
X71102381Y-74119048D01*
X71102381Y-73880952D01*
X71150000Y-73785714D01*
X71197619Y-73738095D01*
X71292857Y-73690476D01*
X71388095Y-73690476D01*
X71530952Y-73738095D01*
X72102381Y-74309524D01*
X72102381Y-73690476D01*
X71197619Y-73309524D02*
X71150000Y-73261905D01*
X71102381Y-73166667D01*
X71102381Y-72928571D01*
X71150000Y-72833333D01*
X71197619Y-72785714D01*
X71292857Y-72738095D01*
X71388095Y-72738095D01*
X71530952Y-72785714D01*
X72102381Y-73357143D01*
X72102381Y-72738095D01*
X98357143Y-73302381D02*
X98023809Y-72826190D01*
X97785714Y-73302381D02*
X97785714Y-72302381D01*
X98166667Y-72302381D01*
X98261905Y-72350000D01*
X98309524Y-72397619D01*
X98357143Y-72492857D01*
X98357143Y-72635714D01*
X98309524Y-72730952D01*
X98261905Y-72778571D01*
X98166667Y-72826190D01*
X97785714Y-72826190D01*
X98738095Y-72397619D02*
X98785714Y-72350000D01*
X98880952Y-72302381D01*
X99119048Y-72302381D01*
X99214286Y-72350000D01*
X99261905Y-72397619D01*
X99309524Y-72492857D01*
X99309524Y-72588095D01*
X99261905Y-72730952D01*
X98690476Y-73302381D01*
X99309524Y-73302381D01*
X100261905Y-73302381D02*
X99690476Y-73302381D01*
X99976190Y-73302381D02*
X99976190Y-72302381D01*
X99880952Y-72445238D01*
X99785714Y-72540476D01*
X99690476Y-72588095D01*
X85857143Y-113602381D02*
X85523809Y-113126190D01*
X85285714Y-113602381D02*
X85285714Y-112602381D01*
X85666667Y-112602381D01*
X85761905Y-112650000D01*
X85809524Y-112697619D01*
X85857143Y-112792857D01*
X85857143Y-112935714D01*
X85809524Y-113030952D01*
X85761905Y-113078571D01*
X85666667Y-113126190D01*
X85285714Y-113126190D01*
X86238095Y-112697619D02*
X86285714Y-112650000D01*
X86380952Y-112602381D01*
X86619048Y-112602381D01*
X86714286Y-112650000D01*
X86761905Y-112697619D01*
X86809524Y-112792857D01*
X86809524Y-112888095D01*
X86761905Y-113030952D01*
X86190476Y-113602381D01*
X86809524Y-113602381D01*
X87428571Y-112602381D02*
X87523810Y-112602381D01*
X87619048Y-112650000D01*
X87666667Y-112697619D01*
X87714286Y-112792857D01*
X87761905Y-112983333D01*
X87761905Y-113221429D01*
X87714286Y-113411905D01*
X87666667Y-113507143D01*
X87619048Y-113554762D01*
X87523810Y-113602381D01*
X87428571Y-113602381D01*
X87333333Y-113554762D01*
X87285714Y-113507143D01*
X87238095Y-113411905D01*
X87190476Y-113221429D01*
X87190476Y-112983333D01*
X87238095Y-112792857D01*
X87285714Y-112697619D01*
X87333333Y-112650000D01*
X87428571Y-112602381D01*
X86207143Y-64302381D02*
X85873809Y-63826190D01*
X85635714Y-64302381D02*
X85635714Y-63302381D01*
X86016667Y-63302381D01*
X86111905Y-63350000D01*
X86159524Y-63397619D01*
X86207143Y-63492857D01*
X86207143Y-63635714D01*
X86159524Y-63730952D01*
X86111905Y-63778571D01*
X86016667Y-63826190D01*
X85635714Y-63826190D01*
X87159524Y-64302381D02*
X86588095Y-64302381D01*
X86873809Y-64302381D02*
X86873809Y-63302381D01*
X86778571Y-63445238D01*
X86683333Y-63540476D01*
X86588095Y-63588095D01*
X87635714Y-64302381D02*
X87826190Y-64302381D01*
X87921429Y-64254762D01*
X87969048Y-64207143D01*
X88064286Y-64064286D01*
X88111905Y-63873810D01*
X88111905Y-63492857D01*
X88064286Y-63397619D01*
X88016667Y-63350000D01*
X87921429Y-63302381D01*
X87730952Y-63302381D01*
X87635714Y-63350000D01*
X87588095Y-63397619D01*
X87540476Y-63492857D01*
X87540476Y-63730952D01*
X87588095Y-63826190D01*
X87635714Y-63873810D01*
X87730952Y-63921429D01*
X87921429Y-63921429D01*
X88016667Y-63873810D01*
X88064286Y-63826190D01*
X88111905Y-63730952D01*
X72102381Y-123642857D02*
X71626190Y-123976191D01*
X72102381Y-124214286D02*
X71102381Y-124214286D01*
X71102381Y-123833333D01*
X71150000Y-123738095D01*
X71197619Y-123690476D01*
X71292857Y-123642857D01*
X71435714Y-123642857D01*
X71530952Y-123690476D01*
X71578571Y-123738095D01*
X71626190Y-123833333D01*
X71626190Y-124214286D01*
X72102381Y-122690476D02*
X72102381Y-123261905D01*
X72102381Y-122976191D02*
X71102381Y-122976191D01*
X71245238Y-123071429D01*
X71340476Y-123166667D01*
X71388095Y-123261905D01*
X71530952Y-122119048D02*
X71483333Y-122214286D01*
X71435714Y-122261905D01*
X71340476Y-122309524D01*
X71292857Y-122309524D01*
X71197619Y-122261905D01*
X71150000Y-122214286D01*
X71102381Y-122119048D01*
X71102381Y-121928571D01*
X71150000Y-121833333D01*
X71197619Y-121785714D01*
X71292857Y-121738095D01*
X71340476Y-121738095D01*
X71435714Y-121785714D01*
X71483333Y-121833333D01*
X71530952Y-121928571D01*
X71530952Y-122119048D01*
X71578571Y-122214286D01*
X71626190Y-122261905D01*
X71721429Y-122309524D01*
X71911905Y-122309524D01*
X72007143Y-122261905D01*
X72054762Y-122214286D01*
X72102381Y-122119048D01*
X72102381Y-121928571D01*
X72054762Y-121833333D01*
X72007143Y-121785714D01*
X71911905Y-121738095D01*
X71721429Y-121738095D01*
X71626190Y-121785714D01*
X71578571Y-121833333D01*
X71530952Y-121928571D01*
X72102381Y-64642857D02*
X71626190Y-64976191D01*
X72102381Y-65214286D02*
X71102381Y-65214286D01*
X71102381Y-64833333D01*
X71150000Y-64738095D01*
X71197619Y-64690476D01*
X71292857Y-64642857D01*
X71435714Y-64642857D01*
X71530952Y-64690476D01*
X71578571Y-64738095D01*
X71626190Y-64833333D01*
X71626190Y-65214286D01*
X72102381Y-63690476D02*
X72102381Y-64261905D01*
X72102381Y-63976191D02*
X71102381Y-63976191D01*
X71245238Y-64071429D01*
X71340476Y-64166667D01*
X71388095Y-64261905D01*
X71102381Y-63357143D02*
X71102381Y-62690476D01*
X72102381Y-63119048D01*
X96857143Y-155102381D02*
X96523809Y-154626190D01*
X96285714Y-155102381D02*
X96285714Y-154102381D01*
X96666667Y-154102381D01*
X96761905Y-154150000D01*
X96809524Y-154197619D01*
X96857143Y-154292857D01*
X96857143Y-154435714D01*
X96809524Y-154530952D01*
X96761905Y-154578571D01*
X96666667Y-154626190D01*
X96285714Y-154626190D01*
X97809524Y-155102381D02*
X97238095Y-155102381D01*
X97523809Y-155102381D02*
X97523809Y-154102381D01*
X97428571Y-154245238D01*
X97333333Y-154340476D01*
X97238095Y-154388095D01*
X98142857Y-154102381D02*
X98761905Y-154102381D01*
X98428571Y-154483333D01*
X98571429Y-154483333D01*
X98666667Y-154530952D01*
X98714286Y-154578571D01*
X98761905Y-154673810D01*
X98761905Y-154911905D01*
X98714286Y-155007143D01*
X98666667Y-155054762D01*
X98571429Y-155102381D01*
X98285714Y-155102381D01*
X98190476Y-155054762D01*
X98142857Y-155007143D01*
X91102381Y-45642857D02*
X90626190Y-45976191D01*
X91102381Y-46214286D02*
X90102381Y-46214286D01*
X90102381Y-45833333D01*
X90150000Y-45738095D01*
X90197619Y-45690476D01*
X90292857Y-45642857D01*
X90435714Y-45642857D01*
X90530952Y-45690476D01*
X90578571Y-45738095D01*
X90626190Y-45833333D01*
X90626190Y-46214286D01*
X91102381Y-44690476D02*
X91102381Y-45261905D01*
X91102381Y-44976191D02*
X90102381Y-44976191D01*
X90245238Y-45071429D01*
X90340476Y-45166667D01*
X90388095Y-45261905D01*
X90197619Y-44309524D02*
X90150000Y-44261905D01*
X90102381Y-44166667D01*
X90102381Y-43928571D01*
X90150000Y-43833333D01*
X90197619Y-43785714D01*
X90292857Y-43738095D01*
X90388095Y-43738095D01*
X90530952Y-43785714D01*
X91102381Y-44357143D01*
X91102381Y-43738095D01*
X85857143Y-132702381D02*
X85523809Y-132226190D01*
X85285714Y-132702381D02*
X85285714Y-131702381D01*
X85666667Y-131702381D01*
X85761905Y-131750000D01*
X85809524Y-131797619D01*
X85857143Y-131892857D01*
X85857143Y-132035714D01*
X85809524Y-132130952D01*
X85761905Y-132178571D01*
X85666667Y-132226190D01*
X85285714Y-132226190D01*
X86809524Y-132702381D02*
X86238095Y-132702381D01*
X86523809Y-132702381D02*
X86523809Y-131702381D01*
X86428571Y-131845238D01*
X86333333Y-131940476D01*
X86238095Y-131988095D01*
X87761905Y-132702381D02*
X87190476Y-132702381D01*
X87476190Y-132702381D02*
X87476190Y-131702381D01*
X87380952Y-131845238D01*
X87285714Y-131940476D01*
X87190476Y-131988095D01*
X88102381Y-45642857D02*
X87626190Y-45976191D01*
X88102381Y-46214286D02*
X87102381Y-46214286D01*
X87102381Y-45833333D01*
X87150000Y-45738095D01*
X87197619Y-45690476D01*
X87292857Y-45642857D01*
X87435714Y-45642857D01*
X87530952Y-45690476D01*
X87578571Y-45738095D01*
X87626190Y-45833333D01*
X87626190Y-46214286D01*
X88102381Y-44690476D02*
X88102381Y-45261905D01*
X88102381Y-44976191D02*
X87102381Y-44976191D01*
X87245238Y-45071429D01*
X87340476Y-45166667D01*
X87388095Y-45261905D01*
X87102381Y-44071429D02*
X87102381Y-43976190D01*
X87150000Y-43880952D01*
X87197619Y-43833333D01*
X87292857Y-43785714D01*
X87483333Y-43738095D01*
X87721429Y-43738095D01*
X87911905Y-43785714D01*
X88007143Y-43833333D01*
X88054762Y-43880952D01*
X88102381Y-43976190D01*
X88102381Y-44071429D01*
X88054762Y-44166667D01*
X88007143Y-44214286D01*
X87911905Y-44261905D01*
X87721429Y-44309524D01*
X87483333Y-44309524D01*
X87292857Y-44261905D01*
X87197619Y-44214286D01*
X87150000Y-44166667D01*
X87102381Y-44071429D01*
X86333334Y-126202381D02*
X86000000Y-125726190D01*
X85761905Y-126202381D02*
X85761905Y-125202381D01*
X86142858Y-125202381D01*
X86238096Y-125250000D01*
X86285715Y-125297619D01*
X86333334Y-125392857D01*
X86333334Y-125535714D01*
X86285715Y-125630952D01*
X86238096Y-125678571D01*
X86142858Y-125726190D01*
X85761905Y-125726190D01*
X86904762Y-125630952D02*
X86809524Y-125583333D01*
X86761905Y-125535714D01*
X86714286Y-125440476D01*
X86714286Y-125392857D01*
X86761905Y-125297619D01*
X86809524Y-125250000D01*
X86904762Y-125202381D01*
X87095239Y-125202381D01*
X87190477Y-125250000D01*
X87238096Y-125297619D01*
X87285715Y-125392857D01*
X87285715Y-125440476D01*
X87238096Y-125535714D01*
X87190477Y-125583333D01*
X87095239Y-125630952D01*
X86904762Y-125630952D01*
X86809524Y-125678571D01*
X86761905Y-125726190D01*
X86714286Y-125821429D01*
X86714286Y-126011905D01*
X86761905Y-126107143D01*
X86809524Y-126154762D01*
X86904762Y-126202381D01*
X87095239Y-126202381D01*
X87190477Y-126154762D01*
X87238096Y-126107143D01*
X87285715Y-126011905D01*
X87285715Y-125821429D01*
X87238096Y-125726190D01*
X87190477Y-125678571D01*
X87095239Y-125630952D01*
X86833334Y-95702381D02*
X86500000Y-95226190D01*
X86261905Y-95702381D02*
X86261905Y-94702381D01*
X86642858Y-94702381D01*
X86738096Y-94750000D01*
X86785715Y-94797619D01*
X86833334Y-94892857D01*
X86833334Y-95035714D01*
X86785715Y-95130952D01*
X86738096Y-95178571D01*
X86642858Y-95226190D01*
X86261905Y-95226190D01*
X87166667Y-94702381D02*
X87833334Y-94702381D01*
X87404762Y-95702381D01*
X70933334Y-98102381D02*
X70600000Y-97626190D01*
X70361905Y-98102381D02*
X70361905Y-97102381D01*
X70742858Y-97102381D01*
X70838096Y-97150000D01*
X70885715Y-97197619D01*
X70933334Y-97292857D01*
X70933334Y-97435714D01*
X70885715Y-97530952D01*
X70838096Y-97578571D01*
X70742858Y-97626190D01*
X70361905Y-97626190D01*
X71790477Y-97102381D02*
X71600000Y-97102381D01*
X71504762Y-97150000D01*
X71457143Y-97197619D01*
X71361905Y-97340476D01*
X71314286Y-97530952D01*
X71314286Y-97911905D01*
X71361905Y-98007143D01*
X71409524Y-98054762D01*
X71504762Y-98102381D01*
X71695239Y-98102381D01*
X71790477Y-98054762D01*
X71838096Y-98007143D01*
X71885715Y-97911905D01*
X71885715Y-97673810D01*
X71838096Y-97578571D01*
X71790477Y-97530952D01*
X71695239Y-97483333D01*
X71504762Y-97483333D01*
X71409524Y-97530952D01*
X71361905Y-97578571D01*
X71314286Y-97673810D01*
X86833334Y-100902381D02*
X86500000Y-100426190D01*
X86261905Y-100902381D02*
X86261905Y-99902381D01*
X86642858Y-99902381D01*
X86738096Y-99950000D01*
X86785715Y-99997619D01*
X86833334Y-100092857D01*
X86833334Y-100235714D01*
X86785715Y-100330952D01*
X86738096Y-100378571D01*
X86642858Y-100426190D01*
X86261905Y-100426190D01*
X87738096Y-99902381D02*
X87261905Y-99902381D01*
X87214286Y-100378571D01*
X87261905Y-100330952D01*
X87357143Y-100283333D01*
X87595239Y-100283333D01*
X87690477Y-100330952D01*
X87738096Y-100378571D01*
X87785715Y-100473810D01*
X87785715Y-100711905D01*
X87738096Y-100807143D01*
X87690477Y-100854762D01*
X87595239Y-100902381D01*
X87357143Y-100902381D01*
X87261905Y-100854762D01*
X87214286Y-100807143D01*
X104052381Y-155388095D02*
X103052381Y-155388095D01*
X103052381Y-155150000D01*
X103100000Y-155007142D01*
X103195238Y-154911904D01*
X103290476Y-154864285D01*
X103480952Y-154816666D01*
X103623810Y-154816666D01*
X103814286Y-154864285D01*
X103909524Y-154911904D01*
X104004762Y-155007142D01*
X104052381Y-155150000D01*
X104052381Y-155388095D01*
X104052381Y-153864285D02*
X104052381Y-154435714D01*
X104052381Y-154150000D02*
X103052381Y-154150000D01*
X103195238Y-154245238D01*
X103290476Y-154340476D01*
X103338095Y-154435714D01*
X98238095Y-69504762D02*
X98380952Y-69552381D01*
X98619048Y-69552381D01*
X98714286Y-69504762D01*
X98761905Y-69457143D01*
X98809524Y-69361905D01*
X98809524Y-69266667D01*
X98761905Y-69171429D01*
X98714286Y-69123810D01*
X98619048Y-69076190D01*
X98428571Y-69028571D01*
X98333333Y-68980952D01*
X98285714Y-68933333D01*
X98238095Y-68838095D01*
X98238095Y-68742857D01*
X98285714Y-68647619D01*
X98333333Y-68600000D01*
X98428571Y-68552381D01*
X98666667Y-68552381D01*
X98809524Y-68600000D01*
X99714286Y-68552381D02*
X99238095Y-68552381D01*
X99190476Y-69028571D01*
X99238095Y-68980952D01*
X99333333Y-68933333D01*
X99571429Y-68933333D01*
X99666667Y-68980952D01*
X99714286Y-69028571D01*
X99761905Y-69123810D01*
X99761905Y-69361905D01*
X99714286Y-69457143D01*
X99666667Y-69504762D01*
X99571429Y-69552381D01*
X99333333Y-69552381D01*
X99238095Y-69504762D01*
X99190476Y-69457143D01*
X66761905Y-89504762D02*
X66904762Y-89552381D01*
X67142858Y-89552381D01*
X67238096Y-89504762D01*
X67285715Y-89457143D01*
X67333334Y-89361905D01*
X67333334Y-89266667D01*
X67285715Y-89171429D01*
X67238096Y-89123810D01*
X67142858Y-89076190D01*
X66952381Y-89028571D01*
X66857143Y-88980952D01*
X66809524Y-88933333D01*
X66761905Y-88838095D01*
X66761905Y-88742857D01*
X66809524Y-88647619D01*
X66857143Y-88600000D01*
X66952381Y-88552381D01*
X67190477Y-88552381D01*
X67333334Y-88600000D01*
X68285715Y-89552381D02*
X67714286Y-89552381D01*
X68000000Y-89552381D02*
X68000000Y-88552381D01*
X67904762Y-88695238D01*
X67809524Y-88790476D01*
X67714286Y-88838095D01*
X69238096Y-89552381D02*
X68666667Y-89552381D01*
X68952381Y-89552381D02*
X68952381Y-88552381D01*
X68857143Y-88695238D01*
X68761905Y-88790476D01*
X68666667Y-88838095D01*
M02*
