M48
;DRILL file {KiCad 4.0.6} date 07/28/17 14:14:49
;FORMAT={3:3/ absolute / metric / suppress leading zeros}
FMAT,2
METRIC,TZ
T1C0.400
T2C0.750
T3C0.889
%
G90
G05
M71
T1
X63140Y-133900
X63267Y-134846
X63800Y-145000
X63860Y-126350
X64600Y-94100
X64800Y-98400
X65000Y-107000
X65600Y-62600
X65800Y-114000
X65800Y-118600
X66000Y-116000
X66500Y-65500
X66800Y-120200
X66900Y-95300
X66950Y-98100
X67600Y-131400
X67725Y-118925
X67750Y-121550
X68000Y-61800
X68500Y-102200
X68550Y-104950
X68600Y-77000
X68800Y-127350
X69100Y-64750
X69100Y-66300
X69100Y-98000
X69100Y-121700
X69300Y-106250
X69600Y-69800
X69700Y-95000
X69800Y-102200
X70350Y-70650
X71250Y-102850
X71400Y-101900
X71450Y-72850
X71850Y-104850
X71900Y-139200
X71900Y-141000
X72060Y-131730
X72250Y-150850
X72340Y-96180
X72350Y-97950
X72500Y-69950
X72700Y-116960
X72700Y-138000
X73000Y-92630
X73450Y-69500
X73500Y-73950
X73500Y-78750
X73500Y-83750
X73500Y-88650
X73500Y-142950
X73500Y-148550
X73550Y-136950
X74150Y-108700
X74200Y-137700
X74250Y-116750
X74300Y-92630
X74500Y-104150
X74700Y-98000
X74850Y-64800
X75100Y-139600
X75200Y-67050
X75300Y-101550
X75600Y-123000
X75605Y-133605
X75630Y-120430
X75700Y-64200
X75700Y-97630
X75700Y-103050
X75750Y-108150
X75770Y-99760
X75800Y-92900
X76000Y-84800
X76000Y-153800
X76200Y-69400
X76250Y-90500
X76250Y-117750
X76600Y-138850
X76700Y-101200
X76750Y-120650
X77000Y-85400
X77000Y-118500
X77100Y-104950
X77250Y-65500
X77450Y-92500
X77500Y-61350
X77750Y-67100
X77800Y-68600
X77900Y-63450
X78200Y-73600
X78250Y-91950
X78350Y-101050
X78550Y-148800
X78650Y-145650
X78780Y-72110
X78800Y-138850
X78850Y-100100
X79200Y-64800
X79330Y-71500
X79500Y-118500
X79600Y-109500
X79800Y-67000
X79900Y-116900
X80050Y-91950
X80851Y-46715
X81100Y-145250
X81200Y-62800
X81200Y-66400
X81200Y-68600
X81350Y-41300
X81400Y-137990
X81580Y-92930
X81750Y-99000
X82000Y-72000
X82220Y-116000
X82340Y-140500
X82400Y-127800
X82450Y-132650
X82500Y-97250
X82500Y-98250
X82600Y-64200
X82650Y-62850
X82750Y-136100
X83000Y-91300
X83200Y-148800
X83350Y-57900
X83450Y-133600
X83500Y-93400
X83500Y-98600
X83600Y-68650
X83700Y-156150
X83800Y-104400
X84550Y-107900
X84724Y-101203
X84800Y-78000
X85150Y-132850
X85510Y-102020
X86150Y-154000
X86350Y-135800
X86400Y-65400
X86400Y-66950
X86650Y-85350
X86780Y-101520
X86800Y-109900
X86950Y-131300
X87000Y-64800
X87000Y-66100
X87000Y-72600
X87850Y-84150
X88200Y-104400
X88210Y-100300
X88250Y-73200
X88450Y-120650
X88600Y-107300
X88600Y-108600
X88800Y-72000
X89150Y-73200
X89250Y-60500
X89750Y-71950
X90000Y-107200
X90000Y-108600
X90200Y-88600
X90250Y-52000
X90250Y-56500
X90600Y-100600
X90600Y-103200
X90750Y-131250
X90800Y-135000
X91000Y-58350
X91000Y-111350
X91400Y-78000
X91600Y-57700
X91680Y-82860
X92400Y-72200
X92450Y-132000
X92700Y-59100
X92800Y-66800
X92800Y-138200
X92900Y-100300
X92975Y-147750
X93050Y-62500
X93200Y-135900
X93600Y-126000
X94000Y-110200
X94200Y-69200
X94500Y-101500
X94500Y-103750
X94600Y-127000
X94700Y-133000
X95050Y-116650
X95400Y-110450
X95450Y-101000
X95500Y-69100
X95800Y-123800
X96200Y-142600
X96400Y-125200
X97400Y-135900
X97500Y-65500
X97550Y-84050
X98000Y-56000
X98200Y-59800
X98600Y-132200
X98600Y-137050
X98600Y-152800
X99200Y-107900
X100000Y-60600
X100360Y-122510
X100450Y-84100
X100600Y-152800
X101000Y-58800
X101200Y-130100
X103325Y-84125
X104400Y-130100
T2
X98000Y-148500
X98000Y-150500
T3
X79510Y-29350
X82050Y-29350
X84590Y-29350
X87130Y-29350
T0
M30
